<svg width="41" height="41" viewBox="0 0 41 41" fill="none" xmlns="http://www.w3.org/2000/svg">
<path d="M32.75 15.8C32.2859 15.8 31.8407 15.9686 31.5126 16.2686C31.1844 16.5687 31 16.9757 31 17.4V22.808L28.41 20.44C27.4955 19.6105 26.2595 19.145 24.9713 19.145C23.683 19.145 22.447 19.6105 21.5325 20.44L20.3075 21.576L15.9675 17.592C15.053 16.7625 13.817 16.297 12.5288 16.297C11.2405 16.297 10.0045 16.7625 9.09 17.592L6.5 19.976V11C6.5 10.5757 6.68437 10.1687 7.01256 9.86863C7.34075 9.56857 7.78587 9.4 8.25 9.4H22.25C22.7141 9.4 23.1592 9.23143 23.4874 8.93137C23.8156 8.63131 24 8.22435 24 7.8C24 7.37565 23.8156 6.96869 23.4874 6.66863C23.1592 6.36857 22.7141 6.2 22.25 6.2H8.25C6.85761 6.2 5.52226 6.70571 4.53769 7.60589C3.55312 8.50606 3 9.72696 3 11V30.552C3.00461 31.7304 3.51865 32.8593 4.43002 33.6926C5.34139 34.5258 6.57614 34.9958 7.865 35H29.635C30.1092 34.9965 30.5805 34.9319 31.035 34.808C32.0455 34.5489 32.9351 33.9938 33.5674 33.2278C34.1996 32.4619 34.5395 31.5275 34.535 30.568V17.4C34.535 17.1872 34.4886 16.9765 34.3985 16.7802C34.3084 16.584 34.1764 16.4062 34.0101 16.2572C33.8439 16.1082 33.6468 15.991 33.4305 15.9125C33.2141 15.834 32.9827 15.7957 32.75 15.8ZM8.25 31.8C7.78587 31.8 7.34075 31.6314 7.01256 31.3314C6.68437 31.0313 6.5 30.6243 6.5 30.2V24.488L11.5575 19.864C11.8133 19.6315 12.1593 19.5009 12.52 19.5009C12.8807 19.5009 13.2267 19.6315 13.4825 19.864L26.555 31.8H8.25ZM31 30.2C30.9888 30.5098 30.8793 30.81 30.685 31.064L22.775 23.8L24.0175 22.68C24.143 22.5629 24.2927 22.4699 24.458 22.4064C24.6233 22.3429 24.8007 22.3102 24.98 22.3102C25.1593 22.3102 25.3367 22.3429 25.502 22.4064C25.6673 22.4699 25.817 22.5629 25.9425 22.68L31 27.336V30.2ZM36.25 6.2H34.5V4.6C34.5 4.17565 34.3156 3.76869 33.9874 3.46863C33.6593 3.16857 33.2141 3 32.75 3C32.2859 3 31.8407 3.16857 31.5126 3.46863C31.1844 3.76869 31 4.17565 31 4.6V6.2H29.25C28.7859 6.2 28.3407 6.36857 28.0126 6.66863C27.6844 6.96869 27.5 7.37565 27.5 7.8C27.5 8.22435 27.6844 8.63131 28.0126 8.93137C28.3407 9.23143 28.7859 9.4 29.25 9.4H31V11C31 11.4243 31.1844 11.8313 31.5126 12.1314C31.8407 12.4314 32.2859 12.6 32.75 12.6C33.2141 12.6 33.6593 12.4314 33.9874 12.1314C34.3156 11.8313 34.5 11.4243 34.5 11V9.4H36.25C36.7141 9.4 37.1592 9.23143 37.4874 8.93137C37.8156 8.63131 38 8.22435 38 7.8C38 7.37565 37.8156 6.96869 37.4874 6.66863C37.1592 6.36857 36.7141 6.2 36.25 6.2Z" fill="#D2D2D2"/>
</svg>
