<svg width="30" height="30" viewBox="0 0 30 30" fill="none" xmlns="http://www.w3.org/2000/svg">
<g clip-path="url(#clip0_145_160)">
<circle cx="15.53" cy="15.53" r="14.53" fill="white"/>
<path d="M30.0625 15.5312C30.0625 23.5567 23.5567 30.0625 15.5312 30.0625C7.50584 30.0625 1 23.5567 1 15.5312C1 7.50584 7.50584 1 15.5312 1C23.5567 1 30.0625 7.50584 30.0625 15.5312ZM21.7626 13.4611C22.0519 11.5276 20.5796 10.4881 18.5663 9.79475L19.2194 7.17549L17.6249 6.77816L16.9891 9.3284C16.5699 9.22393 16.1394 9.12543 15.7116 9.02781L16.352 6.46082L14.7583 6.0635L14.1048 8.68182C13.7579 8.60277 13.4172 8.52467 13.0867 8.44252L13.0885 8.43432L10.8895 7.88529L10.4653 9.58814C10.4653 9.58814 11.6484 9.85926 11.6234 9.87602C12.2692 10.0372 12.3859 10.4645 12.3664 10.8033L11.6225 13.7871C11.667 13.7985 11.7246 13.8149 11.7882 13.8403C11.7351 13.8271 11.6783 13.8126 11.6197 13.7985L10.577 17.9785C10.4979 18.1746 10.2977 18.4689 9.84625 18.3572C9.86213 18.3804 8.68727 18.0679 8.68727 18.0679L7.89566 19.893L9.9707 20.4102C10.3567 20.5069 10.7351 20.6082 11.1074 20.7035L10.4475 23.3527L12.0402 23.75L12.6937 21.1289C13.1161 21.2434 13.5397 21.3533 13.9645 21.4587L13.3132 24.0674L14.9077 24.4647L15.5676 21.8205C18.2866 22.335 20.3312 22.1275 21.1918 19.6686C21.8853 17.6887 21.1572 16.5466 19.7267 15.8019C20.7685 15.5618 21.5533 14.8766 21.7626 13.4611V13.4611ZM18.1195 18.5693C17.6267 20.5492 14.2928 19.4788 13.2119 19.2105L14.0876 15.7008C15.1684 15.9705 18.6344 16.5045 18.1195 18.5693ZM18.6126 13.4325C18.163 15.2335 15.3882 14.3185 14.488 14.0942L15.2819 10.911C16.1821 11.1353 19.0809 11.5539 18.6126 13.4325Z" fill="#F7931A"/>
</g>
<defs>
<clipPath id="clip0_145_160">
<rect width="30" height="30" fill="white"/>
</clipPath>
</defs>
</svg>
