<svg width="32" height="32" viewBox="0 0 32 32" fill="none" xmlns="http://www.w3.org/2000/svg">
<path d="M14.7241 9.40418L19.5537 10.6983C20.8818 11.0542 21.6773 12.432 21.3215 13.7601C20.9656 15.0883 19.5878 15.8838 18.2596 15.5279L13.43 14.2338L14.7241 9.40418ZM17.5259 23.0959L11.4888 21.4783L12.7829 16.6486L18.82 18.2662C20.1481 18.6221 20.9436 20 20.5877 21.3281C20.2319 22.6563 18.854 23.4517 17.5259 23.0959ZM21.7317 7.39958C21.9096 6.7355 21.5119 6.04659 20.8478 5.86865C20.1837 5.69071 19.4948 6.08846 19.3169 6.75253L18.9933 7.95994L16.5785 7.31289L16.9021 6.10548C17.08 5.44141 16.6822 4.75249 16.0182 4.57455C15.3541 4.39661 14.6652 4.79436 14.4872 5.45844L14.1637 6.66584L11.7489 6.01879C11.0848 5.84086 10.3959 6.2386 10.218 6.90268C10.04 7.56675 10.4378 8.25567 11.1018 8.43361L12.3093 8.75713L9.07402 20.8312L7.86661 20.5077C7.20254 20.3297 6.51362 20.7275 6.33568 21.3916C6.15774 22.0556 6.55549 22.7446 7.21956 22.9225L9.63438 23.5695L9.31085 24.777C9.13292 25.441 9.53066 26.1299 10.1947 26.3079C10.8588 26.4858 11.5477 26.0881 11.7257 25.424L12.0492 24.2166L14.464 24.8636L14.1405 26.071C13.9625 26.7351 14.3603 27.424 15.0244 27.602C15.6884 27.7799 16.3774 27.3822 16.5553 26.7181L16.8788 25.5107C19.5472 26.2257 22.2876 24.6435 23.0025 21.9752C23.4717 20.2244 22.944 18.4266 21.7699 17.2061C22.7055 16.5639 23.4192 15.5904 23.7363 14.4072C24.338 12.1614 23.3126 9.8549 21.3661 8.76395L21.7317 7.39958Z" fill="#F9AA4B"/>
</svg>
