<svg width="23" height="23" viewBox="0 0 23 23" fill="none" xmlns="http://www.w3.org/2000/svg">
<path d="M2.87498 13.4167L3.35415 13.4837L7.73373 9.10417C7.64586 8.78236 7.64573 8.4429 7.73336 8.12102C7.82099 7.79915 7.99319 7.5066 8.23206 7.27375C8.97956 6.51667 10.1871 6.51667 10.9346 7.27375C11.4425 7.77208 11.6054 8.48125 11.4329 9.10417L13.8958 11.5671L14.375 11.5C14.5475 11.5 14.7104 11.5 14.8541 11.5671L18.2754 8.14583C18.2083 8.00208 18.2083 7.83917 18.2083 7.66667C18.2083 7.15833 18.4102 6.67082 18.7697 6.31138C19.1291 5.95193 19.6166 5.75 20.125 5.75C20.6333 5.75 21.1208 5.95193 21.4803 6.31138C21.8397 6.67082 22.0416 7.15833 22.0416 7.66667C22.0416 8.175 21.8397 8.66251 21.4803 9.02195C21.1208 9.3814 20.6333 9.58333 20.125 9.58333C19.9525 9.58333 19.7896 9.58333 19.6458 9.51625L16.2246 12.9375C16.2916 13.0812 16.2916 13.2442 16.2916 13.4167C16.2916 13.925 16.0897 14.4125 15.7303 14.772C15.3708 15.1314 14.8833 15.3333 14.375 15.3333C13.8666 15.3333 13.3791 15.1314 13.0197 14.772C12.6602 14.4125 12.4583 13.925 12.4583 13.4167L12.5254 12.9375L10.0625 10.4746C9.75581 10.5417 9.41081 10.5417 9.10415 10.4746L4.72456 14.8542L4.79165 15.3333C4.79165 15.8417 4.58971 16.3292 4.23027 16.6886C3.87082 17.0481 3.38331 17.25 2.87498 17.25C2.36665 17.25 1.87914 17.0481 1.51969 16.6886C1.16025 16.3292 0.958313 15.8417 0.958313 15.3333C0.958313 14.825 1.16025 14.3375 1.51969 13.978C1.87914 13.6186 2.36665 13.4167 2.87498 13.4167Z" fill="#969696"/>
</svg>
