<svg width="40" height="40" viewBox="0 0 40 40" fill="none" xmlns="http://www.w3.org/2000/svg">
<circle cx="20" cy="20" r="20" fill="#F24E1E"/>
<g clip-path="url(#clip0_42_3613)">
<path d="M22.5 13.75H17.5L15.6484 10.9727C15.3711 10.5547 15.668 10 16.168 10H23.832C24.332 10 24.6289 10.5547 24.3516 10.9727L22.5 13.75ZM17.5 15H22.5C22.6484 15.0977 22.8164 15.207 23.0078 15.3281C25.2227 16.7461 30 19.8008 30 26.25C30 28.3203 28.3203 30 26.25 30H13.75C11.6797 30 10 28.3203 10 26.25C10 19.8008 14.7773 16.7461 16.9922 15.3281C17.1797 15.207 17.3516 15.0977 17.5 15ZM20.7852 18.75C20.7852 18.3164 20.4336 17.9648 20 17.9648C19.5664 17.9648 19.2148 18.3164 19.2148 18.75V18.9844C18.9961 19.0312 18.7891 19.0977 18.5938 19.1836C18.0078 19.4492 17.5039 19.9414 17.3789 20.6562C17.3086 21.0547 17.3477 21.4375 17.5117 21.7891C17.6758 22.1328 17.9297 22.375 18.1875 22.5508C18.6406 22.8594 19.2383 23.0391 19.6953 23.1758L19.7812 23.2031C20.3242 23.3672 20.6953 23.4922 20.9258 23.6602C21.0234 23.7305 21.0586 23.7852 21.0742 23.8203C21.0859 23.8516 21.1094 23.9219 21.082 24.082C21.0586 24.2188 20.9844 24.332 20.7695 24.4258C20.5313 24.5273 20.1445 24.5781 19.6445 24.5C19.4102 24.4609 18.9922 24.3203 18.6211 24.1914C18.5352 24.1602 18.4531 24.1328 18.375 24.1094C17.9648 23.9727 17.5234 24.1953 17.3867 24.6055C17.25 25.0156 17.4727 25.457 17.8828 25.5938C17.9297 25.6094 17.9883 25.6289 18.0547 25.6523C18.3633 25.7578 18.8477 25.9219 19.2188 26.0078V26.25C19.2188 26.6836 19.5703 27.0352 20.0039 27.0352C20.4375 27.0352 20.7891 26.6836 20.7891 26.25V26.0352C21 25.9961 21.1992 25.9375 21.3906 25.8555C22.0039 25.5938 22.5 25.0859 22.625 24.3438C22.6953 23.9375 22.6641 23.5508 22.5078 23.1953C22.3555 22.8438 22.1094 22.5859 21.8477 22.3945C21.3711 22.0508 20.7422 21.8594 20.2695 21.7148L20.2383 21.707C19.6836 21.5391 19.3086 21.4219 19.0703 21.2617C18.9688 21.1914 18.9375 21.1445 18.9297 21.125C18.9219 21.1133 18.9023 21.0625 18.9258 20.9297C18.9375 20.8555 19 20.7266 19.2461 20.6133C19.4961 20.5 19.8867 20.4375 20.3633 20.5117C20.5312 20.5391 21.0625 20.6406 21.2109 20.6797C21.6289 20.7891 22.0547 20.543 22.168 20.125C22.2812 19.707 22.0312 19.2812 21.6133 19.168C21.4414 19.1211 21.0508 19.043 20.793 18.9961V18.75H20.7852Z" fill="white"/>
</g>
<defs>
<clipPath id="clip0_42_3613">
<rect width="20" height="20" fill="white" transform="translate(10 10)"/>
</clipPath>
</defs>
</svg>
