<svg width="23" height="23" viewBox="0 0 23 23" fill="none" xmlns="http://www.w3.org/2000/svg">
<path d="M20.125 18.2083V11.7559C20.125 11.2359 20.0192 10.7214 19.8141 10.2436C19.609 9.76586 19.3088 9.33481 18.9319 8.9767L12.8206 3.17207C12.4644 2.83367 11.9918 2.64499 11.5005 2.64499C11.0092 2.64499 10.5366 2.83367 10.1804 3.17207L4.06812 8.9767C3.69117 9.33481 3.391 9.76586 3.18589 10.2436C2.98077 10.7214 2.875 11.2359 2.875 11.7559V18.2083C2.875 18.7167 3.07693 19.2042 3.43638 19.5636C3.79582 19.9231 4.28334 20.125 4.79167 20.125H18.2083C18.7167 20.125 19.2042 19.9231 19.5636 19.5636C19.9231 19.2042 20.125 18.7167 20.125 18.2083Z" stroke="white" stroke-width="2" stroke-linecap="round" stroke-linejoin="round"/>
<path d="M8.625 14.375C8.625 13.8666 8.82693 13.3791 9.18638 13.0197C9.54582 12.6602 10.0333 12.4583 10.5417 12.4583H12.4583C12.9667 12.4583 13.4542 12.6602 13.8136 13.0197C14.1731 13.3791 14.375 13.8666 14.375 14.375V20.125H8.625V14.375Z" stroke="white" stroke-width="2" stroke-linecap="round" stroke-linejoin="round"/>
</svg>
