<svg width="30" height="30" viewBox="0 0 30 30" fill="none" xmlns="http://www.w3.org/2000/svg">
<path d="M15 21.25C15.3542 21.25 15.6513 21.13 15.8913 20.89C16.1304 20.6508 16.25 20.3542 16.25 20V15C16.25 14.6458 16.1304 14.3487 15.8913 14.1087C15.6513 13.8696 15.3542 13.75 15 13.75C14.6458 13.75 14.3492 13.8696 14.11 14.1087C13.87 14.3487 13.75 14.6458 13.75 15V20C13.75 20.3542 13.87 20.6508 14.11 20.89C14.3492 21.13 14.6458 21.25 15 21.25ZM15 11.25C15.3542 11.25 15.6513 11.13 15.8913 10.89C16.1304 10.6508 16.25 10.3542 16.25 10C16.25 9.64583 16.1304 9.34875 15.8913 9.10875C15.6513 8.86958 15.3542 8.75 15 8.75C14.6458 8.75 14.3492 8.86958 14.11 9.10875C13.87 9.34875 13.75 9.64583 13.75 10C13.75 10.3542 13.87 10.6508 14.11 10.89C14.3492 11.13 14.6458 11.25 15 11.25ZM15 27.4062H14.6875C14.5833 27.4062 14.4896 27.3854 14.4062 27.3438C11.6771 26.4896 9.42708 24.7967 7.65625 22.265C5.88542 19.7342 5 16.9375 5 13.875V7.96875C5 7.44792 5.15125 6.97917 5.45375 6.5625C5.75542 6.14583 6.14583 5.84375 6.625 5.65625L14.125 2.84375C14.4167 2.73958 14.7083 2.6875 15 2.6875C15.2917 2.6875 15.5833 2.73958 15.875 2.84375L23.375 5.65625C23.8542 5.84375 24.245 6.14583 24.5475 6.5625C24.8492 6.97917 25 7.44792 25 7.96875V13.875C25 16.9375 24.1146 19.7342 22.3438 22.265C20.5729 24.7967 18.3229 26.4896 15.5938 27.3438C15.4896 27.3854 15.2917 27.4062 15 27.4062V27.4062ZM15 24.875C17.1667 24.1875 18.9583 22.8125 20.375 20.75C21.7917 18.6875 22.5 16.3958 22.5 13.875V7.96875L15 5.15625L7.5 7.96875V13.875C7.5 16.3958 8.20833 18.6875 9.625 20.75C11.0417 22.8125 12.8333 24.1875 15 24.875Z" fill="black"/>
</svg>
