<svg width="11" height="11" viewBox="0 0 11 11" fill="none" xmlns="http://www.w3.org/2000/svg">
<path d="M10.45 1.64999C10.3583 1.86388 10.2972 2.15416 10.2819 2.33749C10.0375 2.33749 9.83888 2.5361 9.83888 2.78055C9.83888 3.02499 10.0375 3.2236 10.2819 3.2236C10.3125 3.2236 10.343 3.2236 10.3736 3.20833C10.343 3.86527 9.80832 4.38472 9.1361 4.38472C8.46387 4.38472 7.92915 3.86527 7.8986 3.20833C8.09721 3.17777 8.26526 2.99444 8.26526 2.78055C8.26526 2.5361 8.06665 2.33749 7.82221 2.33749H7.77638C7.71526 2.03194 7.54721 1.54305 7.3486 1.54305C7.14999 1.54305 6.98193 2.01666 6.92082 2.33749C6.89026 2.33749 6.85971 2.32222 6.82915 2.32222C6.58471 2.32222 6.3861 2.52083 6.3861 2.76527C6.3861 2.97916 6.53888 3.16249 6.75276 3.20833C6.72221 3.86527 6.18749 4.38472 5.51526 4.38472C4.84304 4.38472 4.30832 3.84999 4.27776 3.19305C4.47638 3.14722 4.61388 2.97916 4.61388 2.76527C4.61388 2.52083 4.41526 2.32222 4.17082 2.32222H4.12499C4.06388 2.01666 3.89582 1.52777 3.69721 1.52777C3.4986 1.52777 3.33054 2.00138 3.26943 2.32222C3.23888 2.32222 3.20832 2.30694 3.17776 2.30694C2.93332 2.30694 2.73471 2.50555 2.73471 2.74999C2.73471 2.97916 2.90276 3.16249 3.13193 3.19305C3.10138 3.84999 2.55138 4.36944 1.89443 4.36944C1.22221 4.36944 0.687486 3.84999 0.656931 3.19305C0.687486 3.19305 0.718042 3.20833 0.748598 3.20833C0.993042 3.20833 1.19165 3.00972 1.19165 2.76527C1.19165 2.52083 0.993042 2.32222 0.748598 2.32222H0.718042C0.687486 2.1236 0.641653 1.86388 0.580542 1.64999C0.534709 1.48194 0.305542 1.51249 0.305542 1.69583V8.84583H10.7555V1.72638C10.725 1.54305 10.5264 1.49722 10.45 1.64999Z" fill="#FFB636"/>
<path d="M10.8167 6.6611H0.183333C0.0763889 6.6611 0 6.58472 0 6.47777V5.95833C0 5.85138 0.0763889 5.77499 0.183333 5.77499H10.8014C10.9083 5.77499 10.9847 5.85138 10.9847 5.95833V6.47777C11 6.58472 10.9236 6.6611 10.8167 6.6611ZM11 9.25833V8.73888C11 8.63194 10.9236 8.55555 10.8167 8.55555H0.183333C0.0763889 8.55555 0 8.63194 0 8.73888V9.25833C0 9.36527 0.0763889 9.44166 0.183333 9.44166H10.8014C10.9236 9.44166 11 9.36527 11 9.25833Z" fill="#FFD469"/>
<path d="M9.83891 7.63888C9.83891 7.91388 9.62502 8.12777 9.35002 8.12777C9.07502 8.12777 8.86113 7.91388 8.86113 7.63888C8.86113 7.36388 9.07502 7.14999 9.35002 7.14999C9.62502 7.14999 9.83891 7.36388 9.83891 7.63888ZM5.50002 7.14999C5.22502 7.14999 5.01113 7.36388 5.01113 7.63888C5.01113 7.91388 5.22502 8.12777 5.50002 8.12777C5.77502 8.12777 5.98891 7.91388 5.98891 7.63888C5.98891 7.36388 5.77502 7.14999 5.50002 7.14999ZM1.65002 7.14999C1.37502 7.14999 1.16113 7.36388 1.16113 7.63888C1.16113 7.91388 1.37502 8.12777 1.65002 8.12777C1.92502 8.12777 2.13891 7.89861 2.13891 7.63888C2.13891 7.37916 1.92502 7.14999 1.65002 7.14999Z" fill="#FFC7EF"/>
</svg>
