<svg width="23" height="23" viewBox="0 0 23 23" fill="none" xmlns="http://www.w3.org/2000/svg">
<g clip-path="url(#clip0_16_3160)">
<path fill-rule="evenodd" clip-rule="evenodd" d="M15.3334 8.62502C15.3334 9.64168 14.9295 10.6167 14.2107 11.3356C13.4918 12.0545 12.5167 12.4584 11.5001 12.4584C10.4834 12.4584 9.50839 12.0545 8.78951 11.3356C8.07062 10.6167 7.66675 9.64168 7.66675 8.62502C7.66675 7.60836 8.07062 6.63333 8.78951 5.91444C9.50839 5.19555 10.4834 4.79169 11.5001 4.79169C12.5167 4.79169 13.4918 5.19555 14.2107 5.91444C14.9295 6.63333 15.3334 7.60836 15.3334 8.62502ZM13.4167 8.62502C13.4167 9.13335 13.2148 9.62086 12.8554 9.98031C12.4959 10.3398 12.0084 10.5417 11.5001 10.5417C10.9917 10.5417 10.5042 10.3398 10.1448 9.98031C9.78535 9.62086 9.58341 9.13335 9.58341 8.62502C9.58341 8.11669 9.78535 7.62918 10.1448 7.26973C10.5042 6.91029 10.9917 6.70835 11.5001 6.70835C12.0084 6.70835 12.4959 6.91029 12.8554 7.26973C13.2148 7.62918 13.4167 8.11669 13.4167 8.62502Z" fill="#969696"/>
<path fill-rule="evenodd" clip-rule="evenodd" d="M11.5 0.958344C5.67817 0.958344 0.958374 5.67813 0.958374 11.5C0.958374 17.3219 5.67817 22.0417 11.5 22.0417C17.3219 22.0417 22.0417 17.3219 22.0417 11.5C22.0417 5.67813 17.3219 0.958344 11.5 0.958344ZM2.87504 11.5C2.87504 13.5029 3.55833 15.3468 4.70354 16.8111C5.5078 15.7549 6.54536 14.899 7.73516 14.3101C8.92497 13.7213 10.2348 13.4155 11.5623 13.4167C12.8727 13.4154 14.166 13.7133 15.3438 14.2876C16.5217 14.8619 17.5528 15.6974 18.3588 16.7306C19.1892 15.6415 19.7483 14.3704 19.9898 13.0224C20.2314 11.6744 20.1485 10.2882 19.7479 8.97862C19.3474 7.66901 18.6408 6.4736 17.6865 5.4913C16.7323 4.50899 15.5579 3.76804 14.2604 3.32975C12.9629 2.89145 11.5798 2.76842 10.2253 2.97082C8.87087 3.17322 7.58409 3.69524 6.47144 4.49369C5.3588 5.29213 4.45228 6.34405 3.82688 7.56241C3.20149 8.78076 2.87521 10.1305 2.87504 11.5ZM11.5 20.125C9.52007 20.128 7.59988 19.4468 6.06437 18.1968C6.68243 17.312 7.50507 16.5896 8.46231 16.0911C9.41954 15.5925 10.483 15.3326 11.5623 15.3333C12.6282 15.3325 13.6788 15.5859 14.627 16.0726C15.5752 16.5593 16.3936 17.2652 17.0143 18.1317C15.4669 19.4223 13.515 20.1278 11.5 20.125Z" fill="#969696"/>
</g>
<defs>
<clipPath id="clip0_16_3160">
<rect width="23" height="23" fill="white"/>
</clipPath>
</defs>
</svg>
