<svg width="24" height="24" viewBox="0 0 24 24" fill="none" xmlns="http://www.w3.org/2000/svg">
<path d="M20.2501 18.75C20.2501 19.7446 19.855 20.6984 19.1517 21.4017C18.4485 22.1049 17.4946 22.5 16.5001 22.5C15.5055 22.5 14.5517 22.1049 13.8484 21.4017C13.1452 20.6984 12.7501 19.7446 12.7501 18.75C12.7516 18.2853 12.8374 17.8247 13.0032 17.3906L8.68133 14.6156C8.16101 15.1502 7.49306 15.5174 6.76292 15.6704C6.03277 15.8233 5.2736 15.755 4.58249 15.4742C3.89137 15.1933 3.29972 14.7128 2.88318 14.0939C2.46664 13.475 2.24414 12.746 2.24414 12C2.24414 11.254 2.46664 10.525 2.88318 9.9061C3.29972 9.28724 3.89137 8.80667 4.58249 8.52585C5.2736 8.24503 6.03277 8.17671 6.76292 8.32965C7.49306 8.48258 8.16101 8.84981 8.68133 9.38437L13.0032 6.60937C12.8374 6.17528 12.7516 5.7147 12.7501 5.25C12.7478 4.37785 13.0488 3.53203 13.6016 2.85742C14.1543 2.18281 14.9244 1.72137 15.78 1.55215C16.6356 1.38292 17.5234 1.51644 18.2913 1.92983C19.0593 2.34321 19.6596 3.01075 19.9895 3.81811C20.3194 4.62547 20.3583 5.5224 20.0996 6.35529C19.8409 7.18819 19.3006 7.90521 18.5713 8.38356C17.8421 8.86191 16.9692 9.07181 16.1022 8.97732C15.2351 8.88283 14.4279 8.48983 13.8188 7.86562L9.49696 10.6406C9.83433 11.5155 9.83433 12.4845 9.49696 13.3594L13.8188 16.1344C14.3395 15.6019 15.0069 15.2365 15.7361 15.0847C16.4652 14.933 17.223 15.0018 17.9129 15.2824C18.6027 15.563 19.1934 16.0426 19.6097 16.6602C20.0259 17.2777 20.2489 18.0053 20.2501 18.75Z" fill="white"/>
</svg>
