<svg width="23" height="23" viewBox="0 0 23 23" fill="none" xmlns="http://www.w3.org/2000/svg">
<path d="M15.3334 11.5H17.25V15.3333H15.3334V11.5Z" fill="#969696"/>
<path d="M19.1667 6.70833V4.79167C19.1667 3.73462 18.3071 2.875 17.25 2.875H4.79169C3.2066 2.875 1.91669 4.16492 1.91669 5.75V17.25C1.91669 19.3593 3.63594 20.125 4.79169 20.125H19.1667C20.2237 20.125 21.0834 19.2654 21.0834 18.2083V8.625C21.0834 7.56796 20.2237 6.70833 19.1667 6.70833ZM4.79169 4.79167H17.25V6.70833H4.79169C4.54494 6.6973 4.31195 6.59151 4.14124 6.41299C3.97054 6.23448 3.87526 5.997 3.87526 5.75C3.87526 5.503 3.97054 5.26552 4.14124 5.08701C4.31195 4.90849 4.54494 4.8027 4.79169 4.79167ZM19.1667 18.2083H4.80319C4.36044 18.1968 3.83335 18.0215 3.83335 17.25V8.44771C4.13427 8.556 4.4534 8.625 4.79169 8.625H19.1667V18.2083Z" fill="#969696"/>
</svg>
