<svg width="32" height="32" viewBox="0 0 32 32" fill="none" xmlns="http://www.w3.org/2000/svg">
<path d="M22.9513 7H26L19.658 13.2949C18.5497 14.3873 17.0561 15 15.5 15C13.9439 15 12.4508 14.3873 11.342 13.2949L5 7H8.04867L12.8676 11.7732C13.5701 12.4663 14.5161 12.8551 15.5026 12.8551C16.4891 12.8551 17.4351 12.4663 18.1376 11.7732L22.9513 7Z" fill="white"/>
<path d="M18.1376 20.2268C17.4351 19.5337 16.4891 19.1449 15.5026 19.1449C14.5161 19.1449 13.5701 19.5337 12.8676 20.2268L8.04867 25H5L11.342 18.7051C12.4503 17.6127 13.9439 17 15.5 17C17.0561 17 18.5492 17.6127 19.658 18.7051L26 25H22.9513L18.1376 20.2268Z" fill="white"/>
</svg>
