<svg width="202" height="152" viewBox="0 0 202 152" fill="none" xmlns="http://www.w3.org/2000/svg">
<path d="M78.2937 91.5476H59.4006L55.9313 86.5453H31.9914C31.852 86.5453 31.7389 86.4318 31.7389 86.2919C31.7389 86.1521 31.852 86.0386 31.9914 86.0386H56.1954L59.6647 91.0409H78.2937C78.4336 91.0409 78.5462 91.1544 78.5462 91.2942C78.5462 91.4341 78.4336 91.5476 78.2937 91.5476Z" fill="#F5F6F5"/>
<path d="M31.2009 85.7174C30.9104 85.7174 30.6741 85.9545 30.6741 86.2458C30.6741 86.5371 30.9104 86.7743 31.2009 86.7743C31.4914 86.7743 31.7277 86.5371 31.7277 86.2458C31.7277 85.9545 31.4914 85.7174 31.2009 85.7174ZM31.2009 87.2809C30.632 87.2809 30.1691 86.8163 30.1691 86.2458C30.1691 85.6748 30.632 85.2107 31.2009 85.2107C31.7698 85.2107 32.2327 85.6748 32.2327 86.2458C32.2327 86.8163 31.7698 87.2809 31.2009 87.2809Z" fill="#F5F6F5"/>
<path d="M56.1954 114.16H31.9914C31.852 114.16 31.7389 114.047 31.7389 113.906C31.7389 113.766 31.852 113.653 31.9914 113.653H55.9313L59.4006 108.651H78.2937C78.4336 108.651 78.5462 108.764 78.5462 108.904C78.5462 109.044 78.4336 109.157 78.2937 109.157H59.6647L56.1954 114.16Z" fill="#F5F6F5"/>
<path d="M31.2009 113.424C30.9104 113.424 30.6741 113.662 30.6741 113.953C30.6741 114.244 30.9104 114.481 31.2009 114.481C31.4914 114.481 31.7277 114.244 31.7277 113.953C31.7277 113.662 31.4914 113.424 31.2009 113.424ZM31.2009 114.988C30.632 114.988 30.1691 114.523 30.1691 113.953C30.1691 113.382 30.632 112.918 31.2009 112.918C31.7698 112.918 32.2327 113.382 32.2327 113.953C32.2327 114.523 31.7698 114.988 31.2009 114.988Z" fill="#F5F6F5"/>
<path d="M48.3027 106.346H24.0989C23.9595 106.346 23.8464 106.233 23.8464 106.093C23.8464 105.953 23.9595 105.84 24.0989 105.84H48.0389L51.5085 100.837H77.8998C78.0392 100.837 78.1523 100.951 78.1523 101.091C78.1523 101.23 78.0392 101.344 77.8998 101.344H51.7721L48.3027 106.346Z" fill="#F5F6F5"/>
<path d="M23.3085 105.611C23.018 105.611 22.7817 105.848 22.7817 106.14C22.7817 106.431 23.018 106.668 23.3085 106.668C23.5989 106.668 23.8352 106.431 23.8352 106.14C23.8352 105.848 23.5989 105.611 23.3085 105.611ZM23.3085 107.175C22.7395 107.175 22.2767 106.71 22.2767 106.14C22.2767 105.569 22.7395 105.104 23.3085 105.104C23.8774 105.104 24.3402 105.569 24.3402 106.14C24.3402 106.71 23.8774 107.175 23.3085 107.175Z" fill="#F5F6F5"/>
<path d="M77.8998 99.3614H51.5085L48.0389 94.3586H24.0989C23.9595 94.3586 23.8464 94.2456 23.8464 94.1052C23.8464 93.9654 23.9595 93.8519 24.0989 93.8519H48.3027L51.7721 98.8547H77.8998C78.0392 98.8547 78.1523 98.9677 78.1523 99.1081C78.1523 99.2479 78.0392 99.3614 77.8998 99.3614Z" fill="#F5F6F5"/>
<path d="M23.3085 93.5307C23.018 93.5307 22.7817 93.7678 22.7817 94.0591C22.7817 94.3505 23.018 94.5876 23.3085 94.5876C23.5989 94.5876 23.8352 94.3505 23.8352 94.0591C23.8352 93.7678 23.5989 93.5307 23.3085 93.5307ZM23.3085 95.0942C22.7395 95.0942 22.2767 94.6301 22.2767 94.0591C22.2767 93.4881 22.7395 93.024 23.3085 93.024C23.8774 93.024 24.3402 93.4881 24.3402 94.0591C24.3402 94.6301 23.8774 95.0942 23.3085 95.0942Z" fill="#F5F6F5"/>
<path d="M47.955 103.592C47.3384 103.592 41.8682 105.573 40.0797 106.198C39.7403 106.317 39.5088 106.634 39.4972 106.994C39.4972 106.994 39.6622 112.695 39.6015 115.569C39.5965 115.805 39.6835 116.035 39.8435 116.203C42.1306 118.606 44.439 120.824 47.13 122.821C47.6205 123.185 48.2894 123.185 48.78 122.821C51.4711 120.824 53.7795 118.606 56.0666 116.203C56.2267 116.035 56.3136 115.805 56.3085 115.569C56.2479 112.695 56.413 106.994 56.413 106.994C56.4009 106.634 56.1696 106.317 55.8303 106.198C54.0416 105.572 48.5716 103.592 47.955 103.592Z" fill="#808080"/>
<path d="M47.1348 116.368L43.0771 113.622C42.8806 113.489 42.8287 113.221 42.9612 113.024C43.0938 112.827 43.3606 112.775 43.5571 112.908L46.9547 115.207L52.2559 108.475C52.4028 108.289 52.673 108.257 52.8588 108.404C53.0452 108.552 53.0765 108.823 52.9295 109.009L47.1348 116.368Z" fill="#2E2929"/>
<path d="M53.2745 96.5246H42.0294C40.3033 96.5246 38.891 95.1079 38.891 93.3761V82.0942C38.891 80.3619 40.3033 78.9453 42.0294 78.9453H53.2745C55.0005 78.9453 56.413 80.3619 56.413 82.0942V93.3761C56.413 95.1079 55.0005 96.5246 53.2745 96.5246Z" fill="#808080"/>
<path d="M50.2538 85.9965C50.2538 84.5546 49.0889 83.3857 47.6519 83.3857C46.2149 83.3857 45.0499 84.5546 45.0499 85.9965C45.0499 86.9668 45.5783 87.8134 46.3619 88.2634V90.7901C46.3619 91.502 46.9424 92.0841 47.6519 92.0841C48.3614 92.0841 48.9419 91.502 48.9419 90.7901V88.2634C49.7255 87.8134 50.2538 86.9668 50.2538 85.9965Z" fill="#2E2929"/>
<path d="M56.9175 42.7632L56.9206 42.7662L56.9236 42.7682L57.169 42.9699L57.1483 42.8691C57.8533 43.0094 62.4559 37.3646 62.167 36.7055L62.2579 36.7034L62.0105 36.4998L62.012 36.5028C61.4211 36.0534 59.8228 37.0637 58.424 38.7767C57.0226 40.4923 56.3499 42.2661 56.91 42.7561L56.9079 42.7556L56.9175 42.7632Z" fill="#F9F140"/>
<path d="M57.1367 42.9441C56.5752 42.482 57.2625 40.7081 58.6724 38.9814C60.0824 37.2547 61.6812 36.2292 62.2428 36.6908C62.8043 37.1529 62.117 38.9267 60.7071 40.6534C59.2971 42.3801 57.6983 43.4056 57.1367 42.9441Z" fill="#FAD117"/>
<path d="M60.9878 37.3621C60.35 37.7725 59.639 38.4393 58.986 39.2388C58.3305 40.0419 57.8179 40.8748 57.5427 41.5842C57.4205 41.9003 57.3523 42.177 57.3468 42.3847C57.3422 42.5327 57.3725 42.6122 57.3932 42.6289L57.3943 42.6299C57.4367 42.6634 57.7291 42.6993 58.3916 42.2727C59.0294 41.8623 59.7405 41.1956 60.3934 40.3955C61.0489 39.593 61.5615 38.76 61.8367 38.0507C61.959 37.7345 62.0271 37.4579 62.0332 37.2501C62.0372 37.1022 62.0074 37.0227 61.9867 37.0059C61.9448 36.9725 61.6514 36.935 60.9878 37.3621ZM57.3049 42.7378C57.213 42.6618 57.2039 42.4815 57.2069 42.3806C57.2135 42.1572 57.2847 41.8644 57.4129 41.5335C57.6932 40.8105 58.2134 39.9644 58.8779 39.1501C59.54 38.339 60.2627 37.6621 60.9121 37.2441C61.564 36.8245 61.9453 36.7947 62.0746 36.897C62.1665 36.9725 62.1756 37.1534 62.1726 37.2542C62.166 37.4776 62.0948 37.7705 61.967 38.1013C61.6868 38.8244 61.1661 39.6705 60.5015 40.4847C59.8395 41.2954 59.1168 41.9728 58.4674 42.3908C57.8154 42.8103 57.4352 42.8412 57.3074 42.7399L57.3049 42.7378Z" fill="#D8A914"/>
<path d="M59.5925 41.8421C59.594 41.8411 59.5951 41.84 59.5966 41.8385C59.5951 41.84 59.594 41.8411 59.5925 41.8421ZM59.5971 41.838C59.6016 41.834 59.6057 41.8299 59.6102 41.8259C59.6057 41.8299 59.6016 41.834 59.5971 41.838ZM59.6107 41.8259C59.6117 41.8243 59.6132 41.8233 59.6142 41.8223C59.6132 41.8233 59.6117 41.8243 59.6107 41.8259ZM59.6193 41.8177C59.6203 41.8167 59.6213 41.8157 59.6228 41.8147C59.6213 41.8157 59.6203 41.8167 59.6193 41.8177ZM59.6289 41.8086C59.6299 41.8081 59.6304 41.8076 59.6309 41.8066C59.6304 41.8071 59.6299 41.8081 59.6289 41.8086ZM59.8869 41.5604C59.8874 41.5599 59.888 41.5599 59.8885 41.5593C59.888 41.5599 59.8874 41.5599 59.8869 41.5604ZM59.896 41.5517C59.8965 41.5512 59.8975 41.5502 59.8981 41.5497C59.897 41.5502 59.8965 41.5512 59.896 41.5517ZM59.9061 41.5411C59.9071 41.5406 59.9082 41.5396 59.9087 41.5386C59.9082 41.5396 59.9071 41.5406 59.9061 41.5411ZM59.9147 41.533C59.9157 41.532 59.9172 41.5305 59.9183 41.5295C59.9172 41.5305 59.9157 41.532 59.9147 41.533ZM59.9233 41.5244C59.9243 41.5229 59.9258 41.5219 59.9273 41.5203C59.9258 41.5219 59.9243 41.5229 59.9233 41.5244ZM59.9284 41.5193C59.9324 41.5148 59.9369 41.5107 59.941 41.5061C59.9369 41.5107 59.9324 41.5148 59.9284 41.5193ZM59.9415 41.5056C59.944 41.5036 59.946 41.5011 59.9486 41.4991C59.946 41.5011 59.944 41.5036 59.9415 41.5056ZM59.9486 41.4991C60.0334 41.4129 60.1182 41.3243 60.2031 41.2331C60.1182 41.3243 60.0334 41.4129 59.9486 41.4991Z" fill="#F3001D"/>
<path d="M59.4425 38.1246C59.4971 38.0694 59.5516 38.0157 59.6056 37.9635C59.5516 38.0157 59.4971 38.0694 59.4425 38.1246ZM59.6082 37.961C59.6107 37.9585 59.6127 37.9564 59.6147 37.9544C59.6127 37.9564 59.6107 37.959 59.6082 37.961ZM59.6218 37.9478C59.6238 37.9458 59.6253 37.9443 59.6269 37.9428C59.6253 37.9443 59.6238 37.9458 59.6218 37.9478ZM59.6354 37.9346C59.6365 37.9336 59.6375 37.9331 59.6385 37.9321C59.6375 37.9331 59.6365 37.9336 59.6354 37.9346ZM59.6466 37.924C59.6476 37.9235 59.6481 37.9225 59.6491 37.922C59.6481 37.9225 59.6476 37.9235 59.6466 37.924ZM59.6592 37.9124C59.6597 37.9113 59.6607 37.9108 59.6617 37.9098C59.6607 37.9108 59.6597 37.9113 59.6592 37.9124ZM59.6718 37.8997C59.6723 37.8997 59.6728 37.8992 59.6733 37.8987C59.6728 37.8992 59.6723 37.8997 59.6718 37.8997ZM59.696 37.8774C59.6966 37.8769 59.6966 37.8764 59.6971 37.8764C59.6966 37.8764 59.6966 37.8769 59.696 37.8774ZM59.8768 37.7112C59.8768 37.7107 59.8768 37.7107 59.8773 37.7107C59.8768 37.7107 59.8768 37.7107 59.8768 37.7112ZM59.9006 37.6899C59.9006 37.6894 59.9011 37.6894 59.9011 37.6894L59.9006 37.6899ZM59.9117 37.6798C59.9122 37.6793 59.9132 37.6788 59.9137 37.6783C59.9132 37.6788 59.9122 37.6793 59.9117 37.6798ZM59.9243 37.6692C59.9248 37.6686 59.9253 37.6681 59.9258 37.6676C59.9253 37.6681 59.9248 37.6686 59.9243 37.6692ZM59.9364 37.6585C59.9369 37.6575 59.9374 37.657 59.9379 37.6565C59.9374 37.657 59.9369 37.658 59.9364 37.6585ZM59.947 37.6489C59.948 37.6479 59.9485 37.6474 59.9496 37.6464C59.9485 37.6474 59.948 37.6479 59.947 37.6489ZM59.9586 37.6388C59.9602 37.6372 59.9612 37.6362 59.9627 37.6347C59.9612 37.6362 59.9602 37.6372 59.9586 37.6388ZM59.9713 37.6276C59.9723 37.6266 59.9738 37.6256 59.9753 37.6241C59.9738 37.6251 59.9723 37.6266 59.9713 37.6276ZM59.9814 37.619C59.9834 37.617 59.9854 37.6149 59.9879 37.6134C59.9854 37.6154 59.9834 37.617 59.9814 37.619ZM59.9935 37.6084C59.995 37.6068 59.9965 37.6058 59.998 37.6043C59.9965 37.6058 59.995 37.6068 59.9935 37.6084ZM60.0056 37.5977C60.0076 37.5962 60.0097 37.5942 60.0117 37.5926C60.0097 37.5942 60.0076 37.5962 60.0056 37.5977ZM60.0142 37.5901C60.0182 37.5871 60.0218 37.584 60.0253 37.581C60.0218 37.584 60.0182 37.5871 60.0142 37.5901ZM60.0273 37.5795C60.0879 37.5273 60.1485 37.4766 60.2086 37.428C60.1485 37.4766 60.0879 37.5273 60.0273 37.5795Z" fill="#FAF787"/>
<path d="M59.5925 41.8421L59.5784 41.4909C59.788 41.2893 59.9975 41.0694 60.2036 40.8358L60.2031 41.2331C60.1182 41.3243 60.0334 41.4129 59.9485 41.4991C59.946 41.5011 59.944 41.5036 59.9415 41.5056C59.9415 41.5061 59.9415 41.5061 59.941 41.5061C59.9369 41.5107 59.9324 41.5148 59.9283 41.5193C59.9278 41.5193 59.9273 41.5198 59.9273 41.5203C59.9258 41.5219 59.9243 41.5229 59.9233 41.5244C59.9213 41.5259 59.9198 41.5274 59.9182 41.5295C59.9172 41.5305 59.9157 41.532 59.9147 41.533C59.9127 41.535 59.9107 41.5371 59.9086 41.5386C59.9081 41.5396 59.9071 41.5406 59.9061 41.5411C59.9036 41.5441 59.9006 41.5467 59.898 41.5497C59.8975 41.5502 59.8965 41.5512 59.896 41.5517C59.8935 41.5543 59.891 41.5568 59.8884 41.5593C59.8879 41.5599 59.8874 41.5599 59.8869 41.5604C59.8077 41.6394 59.7284 41.7159 59.6496 41.7894C59.6435 41.7955 59.637 41.801 59.6309 41.8066C59.6304 41.8076 59.6299 41.8081 59.6289 41.8086C59.6269 41.8107 59.6248 41.8127 59.6228 41.8147C59.6213 41.8157 59.6203 41.8167 59.6193 41.8177C59.6178 41.8193 59.6163 41.8208 59.6142 41.8223C59.6132 41.8233 59.6117 41.8243 59.6107 41.8259H59.6102C59.6057 41.8299 59.6016 41.834 59.5971 41.838C59.5971 41.8385 59.5966 41.8385 59.5966 41.8385C59.595 41.84 59.594 41.8411 59.5925 41.8421ZM59.5708 41.303L59.4653 38.6871C59.7112 38.4205 59.9612 38.1758 60.2076 37.959L60.2041 40.6225C59.996 40.8647 59.7834 41.0927 59.5708 41.303ZM59.4572 38.491L59.4425 38.1247C59.4971 38.0694 59.5516 38.0157 59.6056 37.9635C59.6067 37.9625 59.6077 37.9615 59.6082 37.961C59.6107 37.959 59.6127 37.9564 59.6147 37.9544C59.6173 37.9524 59.6198 37.9499 59.6218 37.9478C59.6238 37.9458 59.6253 37.9443 59.6269 37.9428C59.6299 37.9402 59.6329 37.9372 59.6354 37.9347C59.6365 37.9336 59.6375 37.9331 59.6385 37.9321C59.641 37.9296 59.6435 37.9271 59.6466 37.924C59.6476 37.9235 59.6481 37.9225 59.6491 37.922C59.6526 37.9184 59.6556 37.9154 59.6592 37.9124C59.6597 37.9113 59.6607 37.9108 59.6617 37.9098C59.6647 37.9068 59.6683 37.9032 59.6718 37.8997C59.6723 37.8997 59.6728 37.8992 59.6733 37.8987C59.6809 37.8916 59.6885 37.8845 59.696 37.8774C59.6966 37.8769 59.6966 37.8764 59.6971 37.8764C59.7011 37.8728 59.7046 37.8688 59.7087 37.8652C59.7652 37.8125 59.8208 37.7609 59.8768 37.7112C59.8768 37.7107 59.8768 37.7107 59.8773 37.7107C59.8809 37.7072 59.8849 37.7036 59.889 37.7001C59.893 37.6965 59.8965 37.693 59.9006 37.6899L59.9011 37.6894C59.9046 37.6864 59.9081 37.6834 59.9117 37.6798C59.9122 37.6793 59.9132 37.6788 59.9137 37.6783C59.9172 37.6752 59.9208 37.6722 59.9243 37.6692C59.9248 37.6687 59.9253 37.6681 59.9258 37.6676C59.9294 37.6646 59.9329 37.6611 59.9364 37.6585C59.9369 37.658 59.9374 37.657 59.9379 37.6565C59.941 37.654 59.944 37.6514 59.947 37.6489C59.948 37.6479 59.9485 37.6474 59.9496 37.6464C59.9526 37.6438 59.9556 37.6413 59.9586 37.6388C59.9602 37.6372 59.9612 37.6362 59.9627 37.6347C59.9657 37.6327 59.9682 37.6301 59.9713 37.6276C59.9723 37.6266 59.9738 37.6251 59.9753 37.6241C59.9773 37.6226 59.9794 37.6205 59.9814 37.619C59.9834 37.617 59.9854 37.6155 59.9879 37.6134C59.9895 37.6114 59.9915 37.6099 59.9935 37.6084C59.995 37.6068 59.9965 37.6058 59.998 37.6043C60.0006 37.6023 60.0031 37.5997 60.0056 37.5977C60.0076 37.5962 60.0097 37.5942 60.0117 37.5927C60.0127 37.5916 60.0137 37.5911 60.0142 37.5901C60.0182 37.5871 60.0218 37.584 60.0253 37.581C60.0258 37.5805 60.0263 37.58 60.0273 37.5795C60.0879 37.5273 60.1485 37.4766 60.2086 37.428L60.2081 37.774C59.9592 37.9863 59.7067 38.2275 59.4572 38.491Z" fill="#FAEA47"/>
<path d="M59.5784 41.4909L59.5708 41.303C59.7834 41.0927 59.996 40.8647 60.2041 40.6225L60.2036 40.8358C59.9975 41.0694 59.788 41.2893 59.5784 41.4909ZM59.4653 38.687L59.4572 38.491C59.7067 38.2275 59.9592 37.9863 60.2081 37.774L60.2076 37.959C59.9612 38.1758 59.7112 38.4205 59.4653 38.687Z" fill="#E9D345"/>
<path d="M26.187 61.7743L26.1903 61.7718L26.1933 61.7687L26.4358 61.5646L26.3335 61.5661C26.6009 60.8968 21.9185 55.3179 21.2198 55.481L21.2344 55.3913L20.9896 55.5981L20.9928 55.597C20.4432 56.0971 21.1386 57.8593 22.5593 59.5546C23.982 61.2519 25.5956 62.2425 26.1787 61.7804L26.1778 61.7819L26.187 61.7743Z" fill="#F9F140"/>
<path d="M26.4045 61.5914C25.8487 62.0601 24.2374 61.0554 22.8055 59.3464C21.3737 57.6379 20.6635 55.8732 21.2193 55.404C21.7751 54.9353 23.3864 55.9401 24.8183 57.6485C26.2501 59.357 26.9603 61.1222 26.4045 61.5914Z" fill="#FAD117"/>
<path d="M21.6456 56.7654C21.9303 57.4697 22.4524 58.2935 23.1156 59.0849C23.7814 59.8794 24.5029 60.5381 25.1474 60.9404C25.4344 61.1192 25.693 61.2373 25.8952 61.2813C26.0391 61.3128 26.1227 61.2976 26.1432 61.2803L26.1443 61.2793C26.1847 61.2439 26.2741 60.9621 25.9782 60.23C25.6935 59.5257 25.1714 58.7019 24.5081 57.9105C23.8424 57.116 23.1208 56.4569 22.4764 56.0551C22.1894 55.8762 21.9308 55.7582 21.7286 55.7141C21.5847 55.6827 21.5011 55.6974 21.481 55.7146C21.4404 55.7501 21.3493 56.0323 21.6456 56.7654ZM26.2337 61.3872C26.1424 61.4643 25.9638 61.4399 25.8655 61.4181C25.6479 61.3705 25.374 61.2464 25.0736 61.0594C24.417 60.6495 23.6837 59.9807 23.0087 59.1751C22.3363 58.3731 21.8062 57.5356 21.5161 56.8181C21.2251 56.0981 21.2659 55.7166 21.3901 55.6082C21.4815 55.5312 21.66 55.5555 21.7583 55.5768C21.976 55.6244 22.2498 55.7485 22.5501 55.936C23.2067 56.3454 23.9401 57.0147 24.6151 57.8203C25.2875 58.6224 25.8176 59.4594 26.1077 60.1773C26.3987 60.8973 26.3587 61.2783 26.2359 61.3852L26.2337 61.3872Z" fill="#D8A914"/>
<path d="M25.7776 58.9664C25.633 58.7333 25.4709 58.4936 25.2931 58.2525H25.2932C25.4709 58.4936 25.6329 58.7328 25.7776 58.9664Z" fill="#F3001D"/>
<path d="M22.0791 58.3873C22.0787 58.3868 22.0782 58.3863 22.0778 58.3857C22.0782 58.3863 22.0786 58.3868 22.0791 58.3873ZM22.071 58.3756C22.0698 58.3736 22.0687 58.3721 22.0675 58.3705C22.0686 58.3721 22.0699 58.3736 22.071 58.3756ZM22.0632 58.364C22.06 58.3594 22.0568 58.3543 22.0536 58.3498C22.0568 58.3543 22.06 58.3594 22.0632 58.364ZM22.0531 58.3488C21.9171 58.1466 21.7931 57.9475 21.6821 57.7539C21.7932 57.9475 21.9171 58.1466 22.0531 58.3488ZM21.68 57.7499C21.6788 57.7479 21.6777 57.7458 21.6765 57.7438C21.6776 57.7458 21.6788 57.7479 21.68 57.7499ZM21.6721 57.7362C21.6715 57.7352 21.6709 57.7342 21.6702 57.7326C21.6709 57.7342 21.6715 57.7352 21.6721 57.7362ZM21.6631 57.7205C21.663 57.72 21.6629 57.72 21.6628 57.72C21.6629 57.72 21.6629 57.72 21.6631 57.7205Z" fill="#FAF787"/>
<path d="M25.7776 58.9664L25.431 58.9157C25.2718 58.672 25.0953 58.4247 24.9043 58.1785L25.2932 58.2525C25.4709 58.4936 25.633 58.7333 25.7776 58.9664ZM25.2454 58.8883L22.6632 58.5109C22.4476 58.219 22.2539 57.9277 22.0869 57.6445L24.6951 58.139C24.8943 58.3888 25.0788 58.6401 25.2454 58.8883ZM22.4695 58.4825L22.1079 58.4298C22.0982 58.4156 22.0886 58.4014 22.0791 58.3873C22.0786 58.3867 22.0782 58.3862 22.0778 58.3857C22.0755 58.3822 22.0732 58.3786 22.071 58.3756C22.0698 58.3736 22.0686 58.3721 22.0675 58.3705C22.0661 58.3685 22.0646 58.366 22.0632 58.3639C22.06 58.3594 22.0568 58.3543 22.0536 58.3498C22.0534 58.3493 22.0533 58.3492 22.0531 58.3487C21.9171 58.1466 21.7932 57.9475 21.6821 57.7539C21.6814 57.7524 21.6807 57.7514 21.6799 57.7499C21.6788 57.7478 21.6776 57.7458 21.6765 57.7438C21.675 57.7413 21.6736 57.7387 21.6721 57.7362C21.6714 57.7352 21.6708 57.7342 21.6702 57.7326C21.6678 57.7286 21.6654 57.7245 21.6631 57.7205C21.6629 57.72 21.6629 57.72 21.6628 57.72C21.6296 57.6612 21.5976 57.6034 21.5669 57.5457L21.9053 57.61C22.0677 57.8948 22.2573 58.1881 22.4695 58.4825Z" fill="#FAEA47"/>
<path d="M25.431 58.9157L25.2455 58.8883C25.0788 58.6401 24.8943 58.3888 24.6951 58.139L24.9043 58.1785C25.0953 58.4248 25.2718 58.672 25.431 58.9157ZM22.6632 58.5109L22.4695 58.4825C22.2573 58.1881 22.0677 57.8948 21.9053 57.61L22.0869 57.6445C22.2539 57.9277 22.4476 58.219 22.6632 58.5109Z" fill="#E9D345"/>
<path d="M60.598 61.7632L60.5959 61.7546L60.5929 61.7465L60.3828 61.106L60.3051 61.3092C59.2037 60.2528 44.5625 65.094 44.3307 66.6023L44.1659 66.5025L44.3778 67.149L44.3784 67.1419C44.9252 68.6219 48.9313 68.6407 53.379 67.1739C57.8326 65.705 61.0494 63.3004 60.6035 61.7839L60.606 61.7875L60.598 61.7632Z" fill="#F9F140"/>
<path d="M60.4106 61.1891C60.8919 62.6569 57.6478 65.0454 53.1659 66.5233C48.6834 68.0018 44.6599 68.0104 44.1791 66.5426C43.6982 65.0748 46.9419 62.6863 51.4241 61.2084C55.9065 59.7299 59.9299 59.7213 60.4106 61.1891Z" fill="#FAD117"/>
<path d="M47.1859 66.7756C48.7926 66.7696 50.8212 66.3891 52.8972 65.7045C54.9814 65.017 56.8438 64.1126 58.1411 63.1575C58.7189 62.7319 59.1547 62.3144 59.4011 61.9501C59.5764 61.6907 59.6127 61.5139 59.595 61.4597L59.594 61.4566C59.5556 61.3487 59.0739 60.95 57.4038 60.9561C55.7969 60.9621 53.7689 61.3421 51.6923 62.0272C49.6083 62.7147 47.7461 63.6191 46.4487 64.5742C45.871 64.9998 45.4354 65.4173 45.189 65.7816C45.0137 66.041 44.9772 66.2178 44.9945 66.271C45.0321 66.3789 45.514 66.7817 47.1859 66.7756ZM59.8758 61.3654C59.9551 61.6066 59.7657 61.9395 59.646 62.1168C59.3809 62.509 58.9209 62.9518 58.3164 63.3972C56.9943 64.3705 55.1031 65.2901 52.9896 65.9868C50.8848 66.6809 48.8239 67.067 47.187 67.073C45.5446 67.0791 44.8287 66.6971 44.7139 66.3662C44.6349 66.1251 44.824 65.7917 44.9438 65.6149C45.209 65.2222 45.6688 64.7799 46.2734 64.3345C47.5953 63.3612 49.487 62.4416 51.5999 61.7449C53.7047 61.0503 55.7656 60.6647 57.4028 60.6586C59.0451 60.6526 59.7607 61.0326 59.8738 61.3594L59.8758 61.3654Z" fill="#D8A914"/>
<path d="M48.6549 67.5473C49.3304 67.4718 50.0569 67.3482 50.8161 67.1769C50.0568 67.3482 49.3305 67.4718 48.6549 67.5473Z" fill="#FAF787"/>
<path d="M52.9831 60.7473C53.5153 60.608 54.035 60.4909 54.5364 60.3967C54.035 60.4909 53.5153 60.608 52.9831 60.7473ZM54.5481 60.3942C54.5521 60.3937 54.5556 60.3932 54.5592 60.3921C54.5556 60.3932 54.5521 60.3937 54.5481 60.3942ZM54.5748 60.3891C54.5779 60.3886 54.5809 60.3881 54.5839 60.3876C54.5809 60.3881 54.5779 60.3886 54.5748 60.3891ZM54.6021 60.384C54.6041 60.384 54.6061 60.3835 54.6082 60.383C54.6061 60.3835 54.6046 60.384 54.6021 60.384ZM54.6309 60.379C54.6314 60.379 54.6324 60.3785 54.6334 60.3785C54.6324 60.3785 54.6314 60.379 54.6309 60.379Z" fill="#F3001D"/>
<path d="M48.6549 67.5473L49.0481 66.9297C49.7348 66.8339 50.4598 66.691 51.2055 66.5046L50.8161 67.1769C50.0569 67.3482 49.3304 67.4718 48.6549 67.5473ZM49.2589 66.5983L52.2887 61.8387C52.9361 61.6421 53.5744 61.4764 54.1941 61.3437L51.414 66.1443C50.6712 66.3399 49.9467 66.4924 49.2589 66.5983ZM52.5316 61.4566L52.9831 60.7473C53.5154 60.608 54.035 60.4909 54.5365 60.3967C54.5405 60.3957 54.5445 60.3952 54.5481 60.3942C54.5521 60.3937 54.5557 60.3931 54.5592 60.3921C54.5642 60.3911 54.5693 60.3901 54.5748 60.3891C54.5779 60.3886 54.5809 60.3881 54.5839 60.3876C54.59 60.3866 54.5961 60.3855 54.6021 60.384C54.6046 60.384 54.6062 60.3835 54.6082 60.383C54.6157 60.3815 54.6233 60.3805 54.6309 60.379C54.6314 60.379 54.6324 60.3785 54.6334 60.3785C54.6779 60.3703 54.7223 60.3622 54.7667 60.3541L54.3935 60.9986C53.7896 61.1207 53.1654 61.2737 52.5316 61.4566Z" fill="#FAEA47"/>
<path d="M49.0481 66.9297L49.2589 66.5983C49.9467 66.4924 50.6712 66.3399 51.414 66.1443L51.2055 66.5046C50.4598 66.691 49.7348 66.8339 49.0481 66.9297ZM52.2887 61.8387L52.5316 61.4566C53.1654 61.2737 53.7896 61.1207 54.3935 60.9986L54.1941 61.3437C53.5744 61.4764 52.9361 61.6421 52.2887 61.8387Z" fill="#E9D345"/>
<path d="M70.9984 23.9765L71.004 23.9821L71.0106 23.9861L71.4858 24.3621L71.4434 24.171C72.7947 24.4137 81.3853 13.4682 80.8111 12.2198L80.9843 12.2127L80.5046 11.8327L80.5076 11.8383C79.3628 11.0002 76.3459 12.9869 73.7345 16.3091C71.1197 19.6359 69.897 23.0473 70.9843 23.9633L70.9803 23.9623L70.9984 23.9765Z" fill="#F9F140"/>
<path d="M71.4236 24.3139C70.3349 23.4521 71.5852 20.0392 74.2168 16.6911C76.8489 13.3431 79.8652 11.327 80.9545 12.1889C82.0438 13.0507 80.7934 16.4636 78.1613 19.8122C75.5293 23.1602 72.5129 25.1758 71.4236 24.3139Z" fill="#FAD117"/>
<path d="M78.5815 13.5158C77.3781 14.3224 76.0439 15.621 74.8248 17.1719C73.6012 18.7284 72.6518 20.3376 72.1513 21.7025C71.9286 22.3105 71.809 22.8415 71.8044 23.2383C71.8019 23.5205 71.862 23.6715 71.9019 23.7034L71.9044 23.7049C71.9867 23.7667 72.5463 23.826 73.7971 22.9875C75.0006 22.1803 76.3343 20.8823 77.5533 19.3308C78.7774 17.7744 79.7268 16.1652 80.2268 14.8002C80.4495 14.1922 80.5697 13.6612 80.5737 13.2645C80.5768 12.9823 80.5167 12.8313 80.4773 12.8004C80.3955 12.7376 79.8334 12.6763 78.5815 13.5158ZM71.7378 23.9141C71.559 23.7728 71.5358 23.4283 71.5378 23.2352C71.5423 22.8086 71.6676 22.2467 71.9009 21.6103C72.4104 20.2195 73.3745 18.5845 74.6152 17.0057C75.8515 15.4336 77.2069 14.1152 78.433 13.2929C79.6632 12.468 80.3899 12.3971 80.6404 12.5886C80.8192 12.73 80.8429 13.0745 80.8409 13.2676C80.8363 13.6947 80.7106 14.2566 80.4773 14.8924C79.9677 16.2832 79.0037 17.9188 77.7634 19.497C76.5272 21.0692 75.1712 22.3881 73.9451 23.2099C72.7154 24.0347 71.9897 24.1067 71.7423 23.9177L71.7378 23.9141Z" fill="#D8A914"/>
<path d="M76.0752 22.1221C76.4545 21.7603 76.8382 21.3636 77.2195 20.9365C76.8382 21.3636 76.4545 21.7603 76.0752 22.1221Z" fill="#F9FAF9"/>
<path d="M75.9853 14.6913C75.9858 14.6903 75.9863 14.6898 75.9873 14.6893C75.9863 14.6898 75.9858 14.6903 75.9853 14.6913ZM75.9959 14.6802C75.9974 14.6792 75.9989 14.6776 75.9999 14.6766C75.9984 14.6776 75.9974 14.6792 75.9959 14.6802ZM76.0075 14.669C76.0095 14.667 76.0116 14.665 76.0136 14.6629C76.0116 14.665 76.0095 14.667 76.0075 14.669ZM76.0196 14.6569C76.0277 14.6488 76.0363 14.6401 76.0449 14.632C76.0363 14.6401 76.0277 14.6488 76.0196 14.6569ZM76.0454 14.6315C76.0494 14.6275 76.0535 14.6229 76.058 14.6189C76.0535 14.6234 76.0494 14.6275 76.0454 14.6315ZM76.0585 14.6184C76.3105 14.3691 76.5615 14.1345 76.8095 13.9161C76.5615 14.1345 76.3105 14.3691 76.0585 14.6184ZM76.8095 13.9161C76.8135 13.9126 76.817 13.909 76.8211 13.906C76.817 13.909 76.8135 13.9126 76.8095 13.9161ZM76.8256 13.9014C76.8281 13.8994 76.8307 13.8974 76.8327 13.8953C76.8302 13.8974 76.8281 13.8994 76.8256 13.9014ZM76.8382 13.8908C76.8403 13.8888 76.8428 13.8867 76.8448 13.8847C76.8428 13.8867 76.8408 13.8888 76.8382 13.8908ZM76.8509 13.8796C76.8529 13.8781 76.8549 13.8761 76.8564 13.8746C76.8549 13.8761 76.8529 13.8781 76.8509 13.8796ZM76.863 13.869C76.864 13.868 76.865 13.867 76.866 13.8665C76.865 13.8675 76.864 13.868 76.863 13.869Z" fill="#FAF787"/>
<path d="M76.0752 22.1221L76.0358 21.4523C76.4292 21.0591 76.8216 20.632 77.2064 20.1785L77.2195 20.9365C76.8382 21.3636 76.4544 21.7603 76.0752 22.1221ZM76.0146 21.093L75.7202 16.1009C76.1812 15.583 76.6494 15.1068 77.113 14.6837L77.1998 19.7706C76.811 20.2408 76.4135 20.6842 76.0146 21.093ZM75.698 15.7259L75.657 15.0267C75.7666 14.9122 75.8757 14.8002 75.9853 14.6913C75.9858 14.6903 75.9863 14.6898 75.9873 14.6893C75.9903 14.6862 75.9929 14.6832 75.9959 14.6802C75.9974 14.6791 75.9984 14.6776 75.9999 14.6766C76.0025 14.6741 76.005 14.6715 76.0075 14.669C76.0095 14.667 76.0116 14.665 76.0136 14.6629C76.0156 14.6609 76.0176 14.6589 76.0196 14.6569C76.0277 14.6487 76.0363 14.6401 76.0449 14.632C76.0449 14.632 76.0449 14.6315 76.0454 14.6315C76.0494 14.6275 76.0535 14.6234 76.058 14.6189L76.0585 14.6183C76.3105 14.3691 76.5615 14.1345 76.8095 13.9161C76.8135 13.9126 76.817 13.909 76.8211 13.906C76.8226 13.9044 76.8241 13.9029 76.8256 13.9014C76.8281 13.8994 76.8302 13.8974 76.8327 13.8953C76.8347 13.8938 76.8362 13.8923 76.8382 13.8908C76.8408 13.8887 76.8428 13.8867 76.8448 13.8847C76.8468 13.8832 76.8488 13.8816 76.8509 13.8796C76.8529 13.8781 76.8549 13.8761 76.8564 13.8746C76.8589 13.8725 76.861 13.871 76.863 13.869C76.864 13.868 76.865 13.8675 76.866 13.8665C76.9428 13.7991 77.0195 13.7337 77.0958 13.6699L77.1069 14.3301C76.6388 14.7445 76.1656 15.2137 75.698 15.7259Z" fill="#FAEA47"/>
<path d="M76.0358 21.4523L76.0146 21.093C76.4136 20.6842 76.811 20.2408 77.1999 19.7706L77.2064 20.1785C76.8216 20.632 76.4292 21.0591 76.0358 21.4523ZM75.7202 16.1009L75.698 15.7259C76.1656 15.2137 76.6388 14.7445 77.1069 14.3301L77.113 14.6837C76.6494 15.1068 76.1813 15.583 75.7202 16.1009Z" fill="#E9D345"/>
<path d="M44.6791 20.6436L44.6828 20.6376L44.6855 20.631L44.9358 20.138L44.7729 20.2104C44.749 18.9554 33.4719 13.2012 32.4623 13.9384L32.425 13.7844L32.1722 14.2819L32.1766 14.2784C31.6339 15.4539 33.94 17.8048 37.3634 19.5553C40.7917 21.3079 44.0475 21.7968 44.6699 20.6588L44.6696 20.6624L44.6791 20.6436Z" fill="#F9F140"/>
<path d="M44.9038 20.2023C44.33 21.3322 41.0679 20.8184 37.6176 19.0547C34.1674 17.2905 31.8356 14.9446 32.4094 13.8148C32.9832 12.6854 36.2453 13.1992 39.6956 14.9629C43.1458 16.7266 45.4776 19.0725 44.9038 20.2023Z" fill="#FAD117"/>
<path d="M34.013 15.7067C34.9457 16.642 36.3395 17.6072 37.9378 18.4239C39.542 19.2442 41.1441 19.8092 42.4488 20.0149C43.0298 20.1061 43.524 20.1192 43.8781 20.0524C44.13 20.0047 44.2537 19.9242 44.2749 19.8821L44.276 19.8801C44.3166 19.7955 44.2695 19.2827 43.3001 18.3109C42.3675 17.3756 40.9736 16.4104 39.3754 15.5932C37.7711 14.7734 36.1691 14.2085 34.8644 14.0028C34.2834 13.911 33.7891 13.8984 33.4351 13.9653C33.1832 14.0124 33.0595 14.0934 33.0387 14.1345C32.9976 14.2191 33.0425 14.7334 34.013 15.7067ZM44.4922 19.9921C44.3979 20.1775 44.0951 20.2596 43.923 20.2925C43.5419 20.364 43.0191 20.3513 42.411 20.2555C41.0817 20.0463 39.4539 19.4727 37.8274 18.6413C36.207 17.8129 34.7914 16.832 33.8411 15.8794C32.8878 14.9229 32.6953 14.284 32.821 14.0256C32.9153 13.8401 33.218 13.7575 33.3902 13.7251C33.7712 13.6532 34.294 13.6658 34.9021 13.7616C36.2315 13.9713 37.8593 14.5444 39.4858 15.3758C41.1061 16.2042 42.5218 17.1856 43.4721 18.1382C44.4253 19.0943 44.6186 19.7316 44.4945 19.9875L44.4922 19.9921Z" fill="#D8A914"/>
<path d="M35.6922 17.938C35.692 17.938 35.6918 17.938 35.6916 17.938C35.6918 17.938 35.692 17.938 35.6922 17.938ZM35.6803 17.9304C35.68 17.9304 35.6796 17.9299 35.6793 17.9299C35.6796 17.9299 35.68 17.9304 35.6803 17.9304ZM35.6557 17.9142C35.6553 17.9137 35.6549 17.9137 35.6545 17.9137C35.6549 17.9137 35.6553 17.9137 35.6557 17.9142ZM35.6313 17.898C35.6307 17.8975 35.63 17.897 35.6294 17.897C35.6299 17.897 35.6308 17.8975 35.6313 17.898ZM35.6186 17.8899C35.6185 17.8894 35.6182 17.8894 35.6181 17.8894C35.6183 17.8894 35.6184 17.8894 35.6186 17.8899ZM35.6069 17.8818C35.606 17.8813 35.6051 17.8808 35.6042 17.8803C35.6051 17.8808 35.606 17.8813 35.6069 17.8818ZM35.596 17.8747C35.5949 17.8737 35.5938 17.8732 35.5927 17.8722C35.5938 17.8732 35.5949 17.8737 35.596 17.8747ZM35.5826 17.8656C35.5813 17.8651 35.5801 17.8641 35.5789 17.8631C35.5802 17.8641 35.5813 17.8651 35.5826 17.8656ZM35.572 17.8585C35.5705 17.8575 35.569 17.8565 35.5676 17.8555C35.5692 17.8565 35.5704 17.8575 35.572 17.8585ZM35.5596 17.8504C35.5578 17.8489 35.5559 17.8479 35.554 17.8463C35.5559 17.8479 35.5577 17.8489 35.5596 17.8504ZM35.547 17.8418C35.5458 17.8413 35.5445 17.8403 35.5433 17.8392C35.5446 17.8403 35.5458 17.8413 35.547 17.8418ZM35.5351 17.8337C35.5335 17.8327 35.5319 17.8316 35.5303 17.8306C35.5319 17.8316 35.5335 17.8327 35.5351 17.8337ZM35.523 17.8256C35.5212 17.8246 35.5195 17.8235 35.5178 17.8225C35.5195 17.8235 35.5212 17.8246 35.523 17.8256ZM35.5126 17.819C35.5103 17.8175 35.508 17.8154 35.5057 17.8139C35.508 17.8154 35.5103 17.8175 35.5126 17.819ZM35.4984 17.8094C35.4966 17.8078 35.4949 17.8068 35.4931 17.8058C35.4948 17.8068 35.4966 17.8078 35.4984 17.8094ZM35.4884 17.8023C35.4817 17.7977 35.4749 17.7931 35.4683 17.7886C35.4751 17.7931 35.4816 17.7977 35.4884 17.8023ZM35.4638 17.7855C35.4619 17.7845 35.4598 17.783 35.458 17.782C35.46 17.783 35.4617 17.7845 35.4638 17.7855ZM35.4538 17.779C35.45 17.7764 35.4463 17.7739 35.4426 17.7714C35.4462 17.7739 35.4501 17.7764 35.4538 17.779ZM35.4399 17.7693C35.4375 17.7678 35.4352 17.7663 35.4328 17.7648C35.4352 17.7663 35.4374 17.7678 35.4399 17.7693ZM35.4305 17.7632C35.426 17.7602 35.4214 17.7567 35.4169 17.7536C35.4214 17.7567 35.426 17.7602 35.4305 17.7632ZM35.4153 17.7526C35.4131 17.7511 35.411 17.7496 35.4087 17.748C35.411 17.7496 35.4131 17.7511 35.4153 17.7526ZM35.4052 17.746C35.398 17.741 35.3909 17.7359 35.3837 17.7313C35.3909 17.7359 35.3979 17.741 35.4052 17.746ZM35.3814 17.7293C35.3738 17.7242 35.3664 17.7192 35.3588 17.7141C35.3664 17.7192 35.3738 17.7242 35.3814 17.7293ZM35.3571 17.7126C35.3545 17.7111 35.352 17.709 35.3495 17.7075C35.3521 17.7095 35.3545 17.7111 35.3571 17.7126ZM35.3491 17.7075C35.3438 17.7035 35.3384 17.6999 35.333 17.6964C35.3383 17.6999 35.3438 17.7035 35.3491 17.7075ZM35.333 17.6959C35.3303 17.6943 35.3276 17.6923 35.3249 17.6908C35.3276 17.6923 35.3303 17.6943 35.333 17.6959ZM35.3245 17.6903C35.3165 17.6847 35.3084 17.6791 35.3004 17.6736C35.3085 17.6791 35.3163 17.6847 35.3245 17.6903ZM35.3 17.6731C35.2922 17.668 35.2844 17.6624 35.2766 17.6568C35.2845 17.6624 35.2922 17.668 35.3 17.6731ZM35.275 17.6558C35.2644 17.6482 35.2538 17.6411 35.2432 17.6335C35.2539 17.6411 35.2643 17.6482 35.275 17.6558ZM35.243 17.6335C35.2376 17.6295 35.2323 17.6259 35.227 17.6224C35.2324 17.6259 35.2376 17.6295 35.243 17.6335ZM35.227 17.6224C35.2243 17.6204 35.2217 17.6183 35.2191 17.6168C35.2218 17.6183 35.2243 17.6204 35.227 17.6224ZM35.2186 17.6163C35.2106 17.6107 35.2026 17.6052 35.1947 17.5996C35.2026 17.6052 35.2106 17.6107 35.2186 17.6163ZM35.1946 17.5996C35.1866 17.5935 35.1786 17.5879 35.1706 17.5824C35.1787 17.5879 35.1866 17.5935 35.1946 17.5996ZM35.1705 17.5824C35.1625 17.5768 35.1546 17.5707 35.1466 17.5651C35.1547 17.5712 35.1624 17.5768 35.1705 17.5824ZM35.1464 17.5651C35.1439 17.5631 35.1413 17.5616 35.1388 17.5596C35.1413 17.5616 35.1439 17.5631 35.1464 17.5651ZM35.1377 17.5591C35.1301 17.5535 35.1225 17.5479 35.115 17.5428C35.1224 17.5479 35.1301 17.5535 35.1377 17.5591ZM35.1139 17.5418C35.1065 17.5368 35.0992 17.5312 35.0918 17.5261C35.0993 17.5317 35.1064 17.5368 35.1139 17.5418ZM35.0896 17.5246C35.0825 17.5195 35.0754 17.5145 35.0682 17.5089C35.0753 17.5145 35.0825 17.5195 35.0896 17.5246ZM35.066 17.5074C35.0638 17.5059 35.0616 17.5043 35.0594 17.5028C35.0615 17.5043 35.0639 17.5059 35.066 17.5074ZM35.0574 17.5013C35.0533 17.4983 35.0492 17.4952 35.0451 17.4922C35.0492 17.4952 35.0533 17.4983 35.0574 17.5013ZM35.0426 17.4907C35.0404 17.4891 35.0383 17.4876 35.0362 17.4861C35.0384 17.4876 35.0404 17.4891 35.0426 17.4907ZM35.0334 17.4841C35.0291 17.481 35.0248 17.478 35.0206 17.4744C35.0248 17.478 35.0291 17.481 35.0334 17.4841ZM35.0194 17.4739C35.0174 17.4724 35.0153 17.4709 35.0133 17.4694C35.0154 17.4709 35.0173 17.4724 35.0194 17.4739ZM35.0096 17.4668C35.0077 17.4653 35.0058 17.4638 35.0039 17.4628C35.0059 17.4638 35.0076 17.4653 35.0096 17.4668ZM34.9991 17.4587C34.9962 17.4567 34.9934 17.4547 34.9905 17.4527C34.9933 17.4547 34.9963 17.4567 34.9991 17.4587ZM34.9864 17.4496C34.9846 17.4486 34.9828 17.4471 34.981 17.4456C34.9828 17.4471 34.9846 17.4486 34.9864 17.4496ZM34.9763 17.4425C34.9735 17.4405 34.9706 17.438 34.9679 17.4359C34.9708 17.4385 34.9733 17.44 34.9763 17.4425ZM34.9633 17.4329C34.9617 17.4319 34.96 17.4304 34.9583 17.4294C34.9599 17.4304 34.9617 17.4319 34.9633 17.4329ZM34.9531 17.4253C34.9508 17.4238 34.9487 17.4223 34.9465 17.4202C34.9487 17.4223 34.9508 17.4238 34.9531 17.4253ZM34.9401 17.4157C34.9387 17.4147 34.9372 17.4136 34.9358 17.4126C34.9372 17.4136 34.9387 17.4147 34.9401 17.4157ZM34.9301 17.4086C34.9288 17.4076 34.9275 17.4066 34.9261 17.4055C34.9275 17.4066 34.9287 17.4076 34.9301 17.4086ZM34.917 17.399C34.916 17.3979 34.915 17.3974 34.914 17.3964C34.915 17.3974 34.9161 17.3979 34.917 17.399ZM34.907 17.3914C34.9059 17.3903 34.9048 17.3898 34.9037 17.3888C34.9048 17.3898 34.9059 17.3903 34.907 17.3914ZM34.8945 17.3822C34.8937 17.3817 34.8928 17.3807 34.892 17.3802C34.8928 17.3807 34.8937 17.3817 34.8945 17.3822ZM34.8841 17.3746C34.8833 17.3736 34.8824 17.3731 34.8816 17.3726C34.8825 17.3731 34.8832 17.3736 34.8841 17.3746ZM34.8609 17.3569C34.8607 17.3569 34.8604 17.3569 34.8602 17.3564C34.8604 17.3569 34.8608 17.3569 34.8609 17.3569ZM34.8388 17.3407C34.8386 17.3407 34.8383 17.3402 34.8381 17.3402C34.8383 17.3402 34.8386 17.3407 34.8388 17.3407Z" fill="#FAF787"/>
<path d="M42.1243 16.4221C42.1155 16.416 42.1067 16.4099 42.0979 16.4038C42.1067 16.4099 42.1155 16.416 42.1243 16.4221ZM42.093 16.4003C42.0896 16.3978 42.0861 16.3952 42.0827 16.3927C42.0862 16.3952 42.0896 16.3978 42.093 16.4003ZM42.0727 16.3861C42.0707 16.3846 42.0683 16.3826 42.0662 16.3815C42.0684 16.3831 42.0705 16.3841 42.0727 16.3861ZM42.0524 16.3714C42.0514 16.3709 42.05 16.3699 42.049 16.3694C42.0501 16.3699 42.0512 16.3709 42.0524 16.3714ZM42.0335 16.3582C42.0328 16.3577 42.0322 16.3577 42.0315 16.3572C42.0321 16.3577 42.0328 16.3577 42.0335 16.3582ZM41.4376 15.9605L41.4373 15.96C41.4374 15.96 41.4375 15.96 41.4376 15.9605ZM41.4186 15.9483C41.4175 15.9473 41.4167 15.9468 41.4155 15.9463C41.4165 15.9468 41.4176 15.9473 41.4186 15.9483ZM41.3998 15.9362C41.3981 15.9352 41.3967 15.9342 41.395 15.9331C41.3966 15.9342 41.3982 15.9352 41.3998 15.9362ZM41.3811 15.924C41.3789 15.923 41.3768 15.9215 41.3746 15.92C41.3767 15.9215 41.3789 15.923 41.3811 15.924ZM41.3624 15.9124C41.3589 15.9103 41.3556 15.9083 41.3522 15.9058C41.3555 15.9078 41.359 15.9103 41.3624 15.9124ZM41.3435 15.9002C41.3394 15.8977 41.3356 15.8957 41.3316 15.8931C41.3355 15.8951 41.3395 15.8977 41.3435 15.9002ZM41.3277 15.8906C41.1768 15.7953 41.0225 15.7006 40.8648 15.6074H40.8649C41.0225 15.7006 41.1769 15.7953 41.3277 15.8906Z" fill="#F3001D"/>
<path d="M35.8793 18.0596C35.8163 18.0191 35.7539 17.9785 35.6922 17.938C35.692 17.938 35.6918 17.938 35.6916 17.938C35.6878 17.9355 35.6841 17.9329 35.6803 17.9304C35.68 17.9304 35.6796 17.9299 35.6793 17.9299C35.6714 17.9243 35.6635 17.9193 35.6557 17.9142C35.6553 17.9137 35.6549 17.9137 35.6545 17.9137C35.6468 17.9081 35.6391 17.9031 35.6313 17.898C35.6308 17.8975 35.6299 17.897 35.6294 17.897C35.6258 17.8944 35.6222 17.8919 35.6186 17.8899C35.6184 17.8894 35.6182 17.8894 35.618 17.8894C35.6143 17.8868 35.6106 17.8843 35.6069 17.8818C35.606 17.8813 35.6051 17.8808 35.6042 17.8803C35.6014 17.8782 35.5987 17.8762 35.596 17.8747C35.5949 17.8737 35.5938 17.8732 35.5927 17.8721C35.5893 17.8701 35.5859 17.8681 35.5825 17.8656C35.5813 17.8651 35.5802 17.864 35.5789 17.863C35.5766 17.8615 35.5743 17.86 35.572 17.8585C35.5704 17.8575 35.5692 17.8564 35.5675 17.8554C35.5649 17.8539 35.5622 17.8519 35.5596 17.8504C35.5576 17.8488 35.5559 17.8478 35.554 17.8463C35.5516 17.8448 35.5493 17.8433 35.547 17.8417C35.5458 17.8412 35.5446 17.8402 35.5433 17.8392C35.5405 17.8377 35.5379 17.8357 35.5351 17.8336C35.5335 17.8326 35.5319 17.8316 35.5303 17.8306C35.5279 17.8291 35.5254 17.8276 35.523 17.8255C35.5212 17.8245 35.5195 17.8235 35.5178 17.8225C35.516 17.821 35.5143 17.82 35.5126 17.8189C35.5103 17.8174 35.508 17.8154 35.5057 17.8139C35.5033 17.8124 35.5008 17.8108 35.4984 17.8093C35.4966 17.8078 35.4948 17.8068 35.4931 17.8058C35.4915 17.8048 35.4899 17.8032 35.4884 17.8022C35.4816 17.7977 35.4751 17.7931 35.4683 17.7885C35.4667 17.7875 35.4653 17.7865 35.4638 17.7855C35.4616 17.7845 35.46 17.783 35.458 17.782C35.4565 17.7809 35.4552 17.7799 35.4538 17.7789C35.4501 17.7764 35.4462 17.7739 35.4426 17.7713C35.4417 17.7708 35.4407 17.7698 35.4399 17.7693C35.4374 17.7678 35.4352 17.7663 35.4328 17.7647C35.4321 17.7642 35.4312 17.7637 35.4305 17.7632C35.426 17.7602 35.4214 17.7566 35.4169 17.7536C35.4164 17.7536 35.4158 17.7531 35.4153 17.7526C35.4131 17.7511 35.4109 17.7495 35.4087 17.748C35.4076 17.7475 35.4064 17.7465 35.4052 17.746C35.3979 17.7409 35.3909 17.7359 35.3837 17.7313C35.3829 17.7303 35.3821 17.7298 35.3814 17.7293C35.3738 17.7242 35.3664 17.7191 35.3588 17.7141C35.3583 17.7136 35.3576 17.7131 35.3571 17.7125C35.3545 17.711 35.3521 17.7095 35.3495 17.7075C35.3494 17.7075 35.3493 17.7075 35.3491 17.7075C35.3438 17.7034 35.3383 17.6999 35.333 17.6963L35.333 17.6958C35.3302 17.6943 35.3276 17.6923 35.3249 17.6908C35.3248 17.6903 35.3246 17.6903 35.3245 17.6903C35.3163 17.6847 35.3085 17.6791 35.3004 17.6735C35.3002 17.6735 35.3001 17.673 35.3 17.673C35.2922 17.668 35.2844 17.6624 35.2766 17.6568C35.2761 17.6563 35.2756 17.6563 35.275 17.6558C35.2643 17.6482 35.2539 17.6411 35.2432 17.6335C35.2432 17.6335 35.2431 17.6335 35.243 17.6335C35.2376 17.6295 35.2324 17.6259 35.227 17.6224C35.2242 17.6203 35.2218 17.6183 35.2191 17.6168C35.2189 17.6163 35.2187 17.6163 35.2185 17.6163C35.2106 17.6107 35.2026 17.6051 35.1947 17.5996C35.1947 17.5996 35.1947 17.5996 35.1946 17.5996C35.1866 17.5935 35.1786 17.5879 35.1706 17.5823C35.1705 17.5823 35.1705 17.5823 35.1705 17.5823C35.1624 17.5768 35.1547 17.5712 35.1466 17.5651C35.1465 17.5651 35.1464 17.5651 35.1464 17.5651C35.1439 17.5631 35.1413 17.5616 35.1388 17.5595C35.1384 17.5595 35.138 17.559 35.1376 17.559C35.1301 17.5535 35.1224 17.5479 35.115 17.5428C35.1146 17.5423 35.1142 17.5423 35.1139 17.5418C35.1064 17.5367 35.0993 17.5317 35.0918 17.5261C35.0911 17.5256 35.0903 17.5251 35.0896 17.5246C35.0824 17.5195 35.0753 17.5144 35.0682 17.5089C35.0675 17.5084 35.0667 17.5079 35.066 17.5073C35.0639 17.5058 35.0615 17.5043 35.0594 17.5028C35.0587 17.5023 35.0581 17.5018 35.0573 17.5013C35.0533 17.4982 35.0492 17.4952 35.0451 17.4921C35.0442 17.4916 35.0434 17.4911 35.0425 17.4906C35.0404 17.4891 35.0384 17.4876 35.0362 17.4861C35.0353 17.4856 35.0343 17.4846 35.0334 17.484C35.0291 17.481 35.0248 17.478 35.0206 17.4744C35.0202 17.4744 35.0198 17.4739 35.0194 17.4739C35.0172 17.4724 35.0154 17.4709 35.0133 17.4693C35.0121 17.4683 35.0108 17.4673 35.0096 17.4668C35.0076 17.4653 35.0059 17.4638 35.0039 17.4628C35.0023 17.4612 35.0007 17.4602 34.9991 17.4587C34.9963 17.4567 34.9933 17.4547 34.9905 17.4526C34.9891 17.4516 34.9878 17.4506 34.9864 17.4496C34.9846 17.4486 34.9828 17.4471 34.981 17.4455C34.9794 17.4445 34.9779 17.4435 34.9762 17.4425C34.9733 17.44 34.9708 17.4384 34.9679 17.4359C34.9663 17.4349 34.9648 17.4339 34.9633 17.4329C34.9617 17.4319 34.9599 17.4303 34.9583 17.4293C34.9565 17.4278 34.9548 17.4268 34.9531 17.4253C34.9508 17.4237 34.9487 17.4222 34.9464 17.4202C34.9443 17.4187 34.9423 17.4172 34.9401 17.4156C34.9387 17.4146 34.9372 17.4136 34.9357 17.4126C34.9339 17.4111 34.932 17.4101 34.9301 17.4085C34.9287 17.4075 34.9275 17.4065 34.9261 17.4055C34.9231 17.4035 34.92 17.4009 34.917 17.3989C34.916 17.3979 34.915 17.3974 34.914 17.3964C34.9117 17.3949 34.9093 17.3933 34.907 17.3913C34.9059 17.3903 34.9048 17.3898 34.9037 17.3888C34.9006 17.3868 34.8975 17.3842 34.8945 17.3822C34.8937 17.3817 34.8928 17.3807 34.892 17.3802C34.8894 17.3782 34.8868 17.3766 34.8841 17.3746C34.8832 17.3736 34.8825 17.3731 34.8816 17.3726C34.8747 17.3675 34.8678 17.3624 34.8609 17.3569C34.8607 17.3569 34.8603 17.3569 34.8602 17.3564C34.853 17.3513 34.846 17.3462 34.8388 17.3407C34.8386 17.3407 34.8383 17.3401 34.8381 17.3401C34.6916 17.2307 34.5503 17.1208 34.4146 17.0113L35.0006 16.8836C35.4533 17.2297 35.9555 17.5707 36.4947 17.8985L35.8793 18.0596ZM36.8244 17.8119C36.2815 17.4906 35.774 17.1557 35.3147 16.8152L39.8296 15.8328C40.3179 16.0973 40.7834 16.3744 41.2187 16.6597L36.8244 17.8119ZM41.5345 16.5766C41.1143 16.2944 40.6644 16.0183 40.1918 15.7538L40.8649 15.6073C41.0225 15.7006 41.1768 15.7953 41.3277 15.8906C41.329 15.8911 41.3303 15.8921 41.3316 15.8931C41.3357 15.8956 41.3394 15.8977 41.3435 15.9002C41.3464 15.9022 41.3492 15.9043 41.3522 15.9058C41.3557 15.9083 41.3589 15.9103 41.3624 15.9124C41.3665 15.9149 41.3705 15.9174 41.3746 15.92C41.3768 15.9215 41.3789 15.923 41.3811 15.924C41.3858 15.9271 41.3904 15.9301 41.395 15.9331C41.3967 15.9341 41.3981 15.9352 41.3998 15.9362C41.405 15.9392 41.4103 15.9428 41.4155 15.9463C41.4167 15.9468 41.4175 15.9473 41.4186 15.9483C41.4248 15.9519 41.431 15.9559 41.4373 15.96L41.4376 15.9605C41.6425 16.0917 41.8407 16.224 42.0315 16.3572C42.0322 16.3577 42.0328 16.3577 42.0335 16.3582C42.0386 16.3618 42.0438 16.3658 42.049 16.3694C42.05 16.3699 42.0514 16.3709 42.0524 16.3714C42.057 16.3749 42.0616 16.378 42.0662 16.3815C42.0683 16.3825 42.0707 16.3846 42.0727 16.3861C42.076 16.3881 42.0794 16.3907 42.0828 16.3927C42.0861 16.3952 42.0896 16.3977 42.093 16.4003C42.0947 16.4013 42.0963 16.4023 42.098 16.4038C42.1067 16.4099 42.1155 16.416 42.1243 16.4221L41.5345 16.5766Z" fill="#FAEA47"/>
<path d="M36.4947 17.8985C35.9555 17.5707 35.4533 17.2297 35.0006 16.8837L35.3147 16.8153C35.774 17.1557 36.2815 17.4906 36.8244 17.8119L36.4947 17.8985ZM41.2187 16.6597C40.7834 16.3744 40.3179 16.0973 39.8296 15.8328L40.1918 15.7538C40.6644 16.0183 41.1143 16.2944 41.5345 16.5766L41.2187 16.6597Z" fill="#E9D345"/>
<path d="M33.7311 44.8228L33.7394 44.8131L33.7462 44.802L34.3335 43.9984L34.0231 44.0795C34.3426 41.8416 15.9556 28.3369 13.948 29.3537L13.9262 29.069L13.3331 29.8807L13.342 29.8751C12.0381 31.807 15.4592 36.6568 21.0401 40.7623C26.6288 44.8734 32.2758 46.6883 33.7103 44.8471L33.7087 44.8532L33.7311 44.8228Z" fill="#F9F140"/>
<path d="M34.258 44.1033C32.9119 45.9451 27.261 44.0841 21.6364 39.9461C16.0119 35.8087 12.5434 30.9609 13.8895 29.1192C15.2356 27.2774 20.8864 29.1384 26.5111 33.2764C32.1357 37.4143 35.604 42.2616 34.258 44.1033Z" fill="#FAD117"/>
<path d="M16.1946 32.9475C17.5827 34.8815 19.782 37.0019 22.3875 38.9186C25.0027 40.8424 27.6877 42.3123 29.9478 43.0565C30.9543 43.3879 31.8291 43.5546 32.4778 43.5389C32.9394 43.5272 33.1827 43.4193 33.2324 43.3514L33.235 43.3479C33.3315 43.2091 33.3957 42.2844 31.9529 40.2749C30.5648 38.341 28.3654 36.2206 25.7599 34.3039C23.1447 32.3801 20.4598 30.9107 18.1997 30.1659C17.1932 29.8346 16.3183 29.6679 15.6697 29.6841C15.2081 29.6952 14.9648 29.8032 14.9161 29.8695C14.8186 30.0079 14.7501 30.9356 16.1946 32.9475ZM33.5869 43.6098C33.3658 43.9123 32.8038 43.9706 32.4885 43.9782C31.7904 43.9954 30.8646 43.8211 29.8113 43.474C27.5084 42.7156 24.78 41.2234 22.1285 39.2728C19.487 37.3297 17.2534 35.1743 15.8391 33.2049C14.4203 31.2279 14.2624 30.0362 14.5606 29.6132C14.7817 29.3107 15.3436 29.2524 15.659 29.2443C16.3571 29.2276 17.2829 29.4019 18.3362 29.7489C20.639 30.5074 23.3675 31.9991 26.019 33.9497C28.6604 35.8928 30.894 38.0482 32.3083 40.0181C33.7272 41.9946 33.8868 43.1837 33.5924 43.6022L33.5869 43.6098Z" fill="#D8A914"/>
<path d="M18.8334 37.6727C17.9758 36.9041 17.2035 36.1334 16.532 35.3836L17.6104 35.3268C18.3155 36.0732 19.1099 36.8255 19.9739 37.5648L18.8334 37.6727ZM20.5851 37.5065C19.7123 36.7784 18.907 36.0357 18.1887 35.2969L26.4986 34.8612C27.2901 35.4733 28.0377 36.102 28.7292 36.7349L20.5851 37.5065ZM29.3144 36.6796C28.6491 36.0549 27.9289 35.4337 27.1652 34.8262L28.4038 34.7614C29.1239 35.3643 29.7943 35.9723 30.4076 36.5758L29.3144 36.6796Z" fill="#FAEA47"/>
<path d="M19.9739 37.5648C19.1099 36.8255 18.3155 36.0731 17.6104 35.3268L18.1887 35.2969C18.9071 36.0356 19.7123 36.7784 20.5851 37.5065L19.9739 37.5648ZM28.7292 36.7348C28.0377 36.102 27.2902 35.4732 26.4986 34.8612L27.1652 34.8262C27.9289 35.4337 28.6491 36.0549 29.3144 36.6796L28.7292 36.7348Z" fill="#E9D345"/>
<path d="M118.128 96.442H116.802C116.611 96.3366 116.421 96.2307 116.23 96.1218V94.2278C116.997 94.09 117.763 93.9426 118.527 93.786C120.109 93.4628 121.683 93.1015 123.248 92.7028V95.3111C121.551 95.7321 119.845 96.1091 118.128 96.442Z" fill="#2E2929"/>
<path d="M117.144 96.6279C117.03 96.5666 116.916 96.5048 116.802 96.442H118.128C117.8 96.5058 117.472 96.5676 117.144 96.6279Z" fill="#2E2929"/>
<path d="M116.031 96.0072C115.279 95.574 114.536 95.1155 113.802 94.6342C114.546 94.5192 115.289 94.3955 116.031 94.2638V96.0072ZM123.448 95.2609V92.6521C125.812 92.0451 128.152 91.3535 130.466 90.5768V93.2348C128.151 93.9938 125.811 94.6696 123.448 95.2609ZM130.666 93.1694V90.5094C132.499 89.8898 134.315 89.2169 136.109 88.4908H137.684V90.5677C135.376 91.5192 133.035 92.3876 130.666 93.1694ZM137.684 88.2086H136.798C137.094 88.0865 137.389 87.9629 137.684 87.8378V88.2086Z" fill="#2E2929"/>
<path d="M137.684 88.4909H136.109C136.339 88.3976 136.569 88.3039 136.798 88.2086H137.684V88.4909Z" fill="#2E2929"/>
<path d="M137.883 90.4851V88.4909H142.385C142.046 88.6515 141.706 88.8101 141.364 88.9661C140.213 89.4941 139.052 90.0002 137.883 90.4851ZM142.978 88.2087H137.883V87.7527C139.604 87.017 141.305 86.2316 142.98 85.3977C143.625 85.0769 144.264 84.7491 144.901 84.4147V87.2576C144.264 87.5814 143.622 87.8991 142.978 88.2087Z" fill="#2E2929"/>
<path d="M142.385 88.4909H137.883V88.2086H142.978C142.78 88.3039 142.583 88.3976 142.385 88.4909Z" fill="#2E2929"/>
<path d="M145.101 87.1558V84.3093C147.474 83.0548 149.797 81.7025 152.059 80.258H152.119V83.1987C149.835 84.6118 147.494 85.9327 145.101 87.1558ZM152.319 83.0746V80.258H156.599C155.196 81.2334 153.769 82.1722 152.319 83.0746ZM157.003 79.9753H152.498C154.846 78.4584 157.127 76.8411 159.337 75.127V78.2871C158.566 78.8612 157.789 79.4241 157.003 79.9753ZM159.536 78.1381V74.9715C160.758 74.0184 161.957 73.036 163.133 72.0247H166.554V72.3738C165.32 73.4844 164.059 74.5646 162.77 75.6129C161.709 76.4768 160.63 77.3184 159.536 78.1381ZM166.754 72.1934V72.0247H166.94C166.878 72.0809 166.816 72.1372 166.754 72.1934ZM167.249 71.7425H166.754V68.7537C168.44 67.1567 170.071 65.5009 171.644 63.7914H173.771V65.1893C171.696 67.4703 169.521 69.6576 167.249 71.7425ZM166.554 71.7425H163.459C164.509 70.8305 165.542 69.8967 166.554 68.9426V71.7425ZM173.971 64.9689V63.7914H175.021C174.674 64.1861 174.324 64.5792 173.971 64.9689ZM175.268 63.5091H173.971V61.1714C175.529 59.355 177.022 57.4818 178.444 55.558H180.989V56.3398C180.552 56.9392 180.108 57.5345 179.658 58.1243C178.252 59.9676 176.789 61.7637 175.268 63.5091ZM173.771 63.5091H171.903C172.535 62.816 173.159 62.1138 173.771 61.4034V63.5091ZM181.189 56.0647V55.558H181.554C181.432 55.7273 181.311 55.896 181.189 56.0647ZM181.755 55.2758H181.189V51.6537C182.138 50.2345 183.052 48.7905 183.929 47.3247H186.857C185.281 50.0526 183.577 52.7065 181.755 55.2758ZM180.989 55.2758H178.652C178.843 55.0159 179.032 54.756 179.219 54.4945C179.821 53.656 180.412 52.8078 180.989 51.9511V55.2758ZM187.02 47.0425H184.097C185.578 44.5487 186.951 41.99 188.207 39.3776V44.9125C187.82 45.6274 187.424 46.3372 187.02 47.0425ZM188.407 44.5421V39.0914H191.119C190.271 40.9351 189.366 42.7535 188.407 44.5421ZM191.248 38.8091H188.478C188.933 37.8455 189.373 36.8747 189.796 35.8973L192.131 36.8149C192.062 36.977 191.991 37.1387 191.921 37.3003C191.701 37.8054 191.477 38.3081 191.248 38.8091Z" fill="#56000A"/>
<path d="M152.119 83.1987V80.258H152.319V83.0746C152.252 83.1161 152.186 83.1572 152.119 83.1987Z" fill="#56000A"/>
<path d="M159.337 78.2871V75.127C159.403 75.0753 159.47 75.0237 159.536 74.9715V78.1381C159.47 78.1878 159.403 78.238 159.337 78.2871Z" fill="#56000A"/>
<path d="M166.554 72.3738V72.0247H166.754V72.1934C166.687 72.2537 166.621 72.3135 166.554 72.3738ZM166.754 71.7425H166.554V68.9426C166.621 68.8798 166.687 68.817 166.754 68.7537V71.7425Z" fill="#56000A"/>
<path d="M173.771 65.1893V63.7914H173.971V64.9689C173.905 65.0423 173.839 65.1158 173.771 65.1893ZM173.971 63.5092H173.771V61.4035C173.839 61.3259 173.905 61.2489 173.971 61.1714V63.5092Z" fill="#56000A"/>
<path d="M180.989 56.3398V55.558H181.189V56.0647C181.123 56.1564 181.056 56.2481 180.989 56.3398ZM181.189 55.2758H180.989V51.9511C181.056 51.8518 181.123 51.753 181.189 51.6537V55.2758Z" fill="#56000A"/>
<path d="M188.207 44.9125V39.3776C188.253 39.2824 188.298 39.1866 188.344 39.0914H188.407V44.5421C188.34 44.6657 188.274 44.7888 188.207 44.9125Z" fill="#56000A"/>
<path d="M191.119 39.0914H188.344C188.389 38.9971 188.433 38.9034 188.478 38.8092H191.248C191.205 38.9034 191.162 38.9971 191.119 39.0914Z" fill="#56000A"/>
<path d="M186.857 47.3247H183.929C183.985 47.2305 184.041 47.1367 184.097 47.0425H187.02C186.966 47.1367 186.912 47.231 186.857 47.3247Z" fill="#56000A"/>
<path d="M181.554 55.558H178.444C178.514 55.4638 178.583 55.37 178.652 55.2758H180.989H181.189H181.755C181.688 55.3695 181.621 55.4643 181.554 55.558Z" fill="#56000A"/>
<path d="M175.021 63.7914H171.644C171.731 63.6971 171.817 63.6034 171.903 63.5092H173.771H173.971H175.268C175.185 63.6034 175.103 63.6971 175.021 63.7914Z" fill="#56000A"/>
<path d="M166.94 72.0247H163.133C163.163 71.9978 163.194 71.971 163.225 71.9446C163.303 71.8772 163.381 71.8099 163.459 71.7425H166.554H166.754H167.249C167.146 71.8362 167.043 71.931 166.94 72.0247Z" fill="#56000A"/>
<path d="M156.599 80.258H152.059C152.205 80.1643 152.352 80.07 152.498 79.9753H157.003C156.869 80.07 156.734 80.1643 156.599 80.258Z" fill="#56000A"/>
<path d="M116.23 96.1218C116.164 96.0838 116.097 96.0458 116.031 96.0073V94.2638C116.097 94.2522 116.164 94.24 116.23 94.2278V96.1218Z" fill="#2E2929"/>
<path d="M123.248 95.3111V92.7028C123.315 92.6861 123.382 92.6688 123.448 92.6521V95.2609C123.382 95.2777 123.314 95.2944 123.248 95.3111Z" fill="#2E2929"/>
<path d="M130.466 93.2348V90.5768C130.532 90.5545 130.599 90.5317 130.666 90.5094V93.1694C130.6 93.1912 130.532 93.213 130.466 93.2348Z" fill="#2E2929"/>
<path d="M137.684 90.5677V87.8378C137.75 87.8099 137.817 87.781 137.883 87.7526V88.2086V88.4909V90.4851C137.817 90.513 137.75 90.5403 137.684 90.5677Z" fill="#2E2929"/>
<path d="M144.901 87.2576V84.4147C144.968 84.3798 145.035 84.3448 145.101 84.3093V87.1558C145.035 87.1897 144.968 87.2237 144.901 87.2576Z" fill="#2E2929"/>
<path d="M98.6204 98.3237C97.2726 98.3237 95.9247 98.2964 94.5774 98.2416V96.7242H101.595V98.2796C100.604 98.309 99.6128 98.3237 98.6204 98.3237ZM101.595 96.442H94.5774V95.7124C95.9394 95.7691 97.3024 95.797 98.6654 95.797C99.642 95.797 100.619 95.7828 101.595 95.7539V96.442Z" fill="#2E2929"/>
<path d="M94.5774 96.7242H101.595V96.442H94.5774V96.7242Z" fill="#2E2929"/>
<path d="M101.795 98.2736V96.7242H108.813V97.809C106.479 98.0441 104.139 98.1996 101.795 98.2736ZM108.813 96.442H101.795V95.7478C104.139 95.6734 106.48 95.5163 108.813 95.2761V96.442Z" fill="#2E2929"/>
<path d="M101.795 96.7242H108.813V96.442H101.795V96.7242Z" fill="#2E2929"/>
<path d="M94.3779 98.2336C92.7437 98.1636 91.1101 98.0532 89.4804 97.9012C88.8264 97.8404 88.2659 97.4102 88.2209 96.7242H94.3779V98.2336ZM94.3779 96.442H88.2346C88.3305 95.8922 88.8184 95.3638 89.3931 95.3638C89.4218 95.3638 89.4511 95.3653 89.4804 95.3678C90.5434 95.4671 91.608 95.5502 92.6735 95.6151C93.2417 95.6496 93.8093 95.6794 94.3779 95.7043V96.442Z" fill="#2E2929"/>
<path d="M94.3779 96.7242H88.2209C88.2189 96.6948 88.2179 96.6649 88.2179 96.6345C88.2179 96.5707 88.2234 96.5063 88.2346 96.442H94.3779V96.7242Z" fill="#2E2929"/>
<path d="M109.013 97.7887V96.7242H116.031V96.8255C113.702 97.2258 111.362 97.5475 109.013 97.7887ZM116.031 96.442H109.013V95.2554C110.614 95.0871 112.211 94.8799 113.802 94.6342C114.535 95.1155 115.279 95.5741 116.031 96.0073V96.442Z" fill="#2E2929"/>
<path d="M109.013 96.7242H116.031V96.442H109.013V96.7242Z" fill="#2E2929"/>
<path d="M116.23 96.7911V96.7242H116.609C116.483 96.747 116.357 96.7688 116.23 96.7911ZM116.802 96.442H116.23V96.1218C116.421 96.2307 116.611 96.3366 116.802 96.442Z" fill="#2E2929"/>
<path d="M116.609 96.7242H116.23V96.442H116.802C116.916 96.5048 117.03 96.5666 117.144 96.6279C116.966 96.6603 116.788 96.6928 116.609 96.7242Z" fill="#2E2929"/>
<path d="M94.5774 98.2417C94.5107 98.2391 94.4446 98.2361 94.3779 98.2335V96.7242V96.442V95.7043C94.4446 95.7068 94.5107 95.7098 94.5774 95.7124V96.442V96.7242V98.2417Z" fill="#2E2929"/>
<path d="M101.595 98.2796V95.7539C101.662 95.7519 101.729 95.7499 101.795 95.7478V96.442V96.7242V98.2736C101.729 98.2756 101.662 98.2776 101.595 98.2796Z" fill="#2E2929"/>
<path d="M108.813 97.809V95.2761C108.88 95.269 108.946 95.2625 109.013 95.2554V96.442V96.7242V97.7887C108.946 97.7958 108.879 97.8024 108.813 97.809Z" fill="#2E2929"/>
<path d="M116.031 96.8255V96.0072C116.097 96.0458 116.164 96.0838 116.23 96.1218V96.442V96.7242V96.7911C116.171 96.8012 116.11 96.8118 116.051 96.822C116.044 96.823 116.037 96.8245 116.031 96.8255Z" fill="#2E2929"/>
<path d="M194.508 37.7482L192.131 36.8149L189.796 35.8973L188.407 35.3517V33.9887L192.313 30.858H193.467L194.508 37.7482ZM188.207 35.2731L187.266 34.9033L188.207 34.1488V35.2731ZM193.425 30.5758H192.665L193.343 30.0332L193.425 30.5758Z" fill="#56000A"/>
<path d="M188.407 35.3517L188.207 35.2731V34.1488L188.407 33.9887V35.3517Z" fill="#2E2929"/>
<path d="M193.467 30.858H192.313L192.665 30.5758H193.425L193.467 30.858Z" fill="#2E2929"/>
<path d="M119.299 140.028C118.271 140.028 117.246 140.025 116.23 140.019V137.891H123.248V140.012C121.944 140.023 120.628 140.028 119.299 140.028ZM123.248 137.609H116.23V129.658H123.248V137.609ZM123.248 129.375H116.23V125.377C117.073 125.372 117.919 125.369 118.771 125.369C120.279 125.369 121.771 125.377 123.248 125.393V129.375Z" fill="#2F2F2F"/>
<path d="M116.23 129.658H123.248V129.375H116.23V129.658Z" fill="#2F2F2F"/>
<path d="M116.23 137.891H123.248V137.609H116.23V137.891Z" fill="#2F2F2F"/>
<path d="M116.031 140.017C113.65 140.002 111.31 139.969 109.013 139.919V137.891H116.031V140.017ZM116.031 137.609H109.013V129.658H116.031V137.609ZM116.031 129.375H109.013V125.485C111.307 125.43 113.649 125.394 116.031 125.378V129.375Z" fill="#2F2F2F"/>
<path d="M109.013 129.658H116.031V129.375H109.013V129.658Z" fill="#2F2F2F"/>
<path d="M109.013 137.891H116.031V137.609H109.013V137.891Z" fill="#2F2F2F"/>
<path d="M123.448 140.011V137.891H130.466V139.898C128.179 139.952 125.834 139.99 123.448 140.011ZM130.466 137.609H123.448V129.658H130.466V137.609ZM130.466 129.375H123.448V125.395C125.833 125.422 128.175 125.47 130.466 125.536V129.375Z" fill="#2F2F2F"/>
<path d="M123.448 129.658H130.466V129.375H123.448V129.658Z" fill="#2F2F2F"/>
<path d="M123.448 137.891H130.466V137.609H123.448V137.891Z" fill="#2F2F2F"/>
<path d="M108.813 139.914C106.419 139.862 104.076 139.791 101.795 139.703V137.891H108.813V139.914ZM108.813 137.609H101.795V129.658H108.813V137.609ZM108.813 129.375H101.795V125.727C104.073 125.629 106.418 125.549 108.813 125.49V129.375Z" fill="#2F2F2F"/>
<path d="M101.795 129.658H108.813V129.375H101.795V129.658Z" fill="#2F2F2F"/>
<path d="M101.795 137.891H108.813V137.609H101.795V137.891Z" fill="#2F2F2F"/>
<path d="M130.666 139.893V137.891H137.684V139.664C135.411 139.758 133.068 139.835 130.666 139.893ZM137.684 137.609H130.666V129.658H137.684V137.609ZM137.684 129.375H130.666V125.542C133.066 125.613 135.409 125.706 137.684 125.817V129.375Z" fill="#2F2F2F"/>
<path d="M130.666 129.658H137.684V129.375H130.666V129.658Z" fill="#2F2F2F"/>
<path d="M130.666 137.891H137.684V137.609H130.666V137.891Z" fill="#2F2F2F"/>
<path d="M101.595 139.696C99.182 139.601 96.8378 139.488 94.5774 139.356V137.891H101.595V139.696ZM101.595 137.609H94.5774V129.658H101.595V137.609ZM101.595 129.375H94.5774V126.119C96.8363 125.971 99.18 125.842 101.595 125.736V129.375Z" fill="#2F2F2F"/>
<path d="M94.5774 129.658H101.595V129.375H94.5774V129.658Z" fill="#2F2F2F"/>
<path d="M94.5774 137.891H101.595V137.609H94.5774V137.891Z" fill="#2F2F2F"/>
<path d="M137.883 139.655V137.891H144.901V139.29C142.65 139.431 140.308 139.553 137.883 139.655ZM144.901 137.609H137.883V129.658H144.901V137.609ZM144.901 129.375H137.883V125.827C140.306 125.947 142.649 126.09 144.901 126.253V129.375Z" fill="#2F2F2F"/>
<path d="M137.883 129.658H144.901V129.375H137.883V129.658Z" fill="#2F2F2F"/>
<path d="M137.883 137.891H144.901V137.609H137.883V137.891Z" fill="#2F2F2F"/>
<path d="M94.3779 139.344C91.9347 139.201 89.59 139.036 87.3599 138.851V137.891H94.3779V139.344ZM94.3779 137.609H87.3599V129.658H94.3779V137.609ZM94.3779 129.375H87.3599V126.687C89.5875 126.48 91.9342 126.294 94.3779 126.132V129.375Z" fill="#2F2F2F"/>
<path d="M87.3599 129.658H94.3779V129.375H87.3599V129.658Z" fill="#2F2F2F"/>
<path d="M87.3599 137.891H94.3779V137.609H87.3599V137.891Z" fill="#2F2F2F"/>
<path d="M145.101 139.277V137.891H152.119V138.744C149.903 138.943 147.558 139.122 145.101 139.277ZM152.319 138.725V137.891H159.337V137.959C157.18 138.24 154.835 138.497 152.319 138.725ZM159.536 137.932V137.891H159.849C159.746 137.905 159.64 137.919 159.536 137.932ZM161.829 137.609H159.536V129.658H166.554V136.77C165.141 137.067 163.562 137.347 161.829 137.609ZM159.337 137.609H152.319V129.658H159.337V137.609ZM152.119 137.609H145.101V129.658H152.119V137.609ZM166.754 136.728V129.658H168.995C171.255 130.293 172.885 130.978 173.771 131.697V134.228C172.615 135.151 170.196 135.991 166.754 136.728ZM173.971 134.055V131.872C174.349 132.228 174.544 132.593 174.544 132.964C174.544 133.338 174.349 133.703 173.971 134.055ZM167.937 129.375H166.754V129.09C167.163 129.184 167.557 129.279 167.937 129.375ZM166.554 129.375H159.536V127.781C162.184 128.167 164.539 128.59 166.554 129.045V129.375ZM159.337 129.375H152.319V126.896C154.833 127.155 157.179 127.44 159.337 127.752V129.375ZM152.119 129.375H145.101V126.267C147.556 126.447 149.901 126.65 152.119 126.876V129.375Z" fill="#2F2F2F"/>
<path d="M152.119 138.744V137.891H152.319V138.725C152.253 138.731 152.184 138.737 152.119 138.744ZM152.319 137.609H152.119V129.658H152.319V137.609ZM152.319 129.375H152.119V126.876C152.185 126.883 152.253 126.89 152.319 126.896V129.375Z" fill="#2F2F2F"/>
<path d="M159.337 137.959V137.891H159.536V137.932C159.47 137.941 159.403 137.95 159.337 137.959ZM159.536 137.609H159.337V129.658H159.536V137.609ZM159.536 129.375H159.337V127.752C159.402 127.761 159.471 127.771 159.536 127.781V129.375Z" fill="#2F2F2F"/>
<path d="M166.554 136.77V129.658H166.754V136.728C166.688 136.741 166.621 136.756 166.554 136.77ZM166.754 129.375H166.554V129.045C166.621 129.06 166.687 129.075 166.754 129.09V129.375Z" fill="#2F2F2F"/>
<path d="M173.771 134.228V131.697C173.843 131.755 173.91 131.813 173.971 131.872V134.055C173.909 134.113 173.843 134.17 173.771 134.228Z" fill="#2F2F2F"/>
<path d="M168.995 129.658H145.101V129.375H167.937C168.304 129.468 168.656 129.562 168.995 129.658Z" fill="#2F2F2F"/>
<path d="M159.849 137.891H145.101V137.609H161.829C161.189 137.705 160.53 137.799 159.849 137.891Z" fill="#2F2F2F"/>
<path d="M87.1599 138.834C84.6693 138.626 82.32 138.391 80.1425 138.134V137.891H87.1599V138.834ZM87.1599 137.609H80.1425V129.658H87.1599V137.609ZM87.1599 129.375H80.1425V127.486C82.319 127.201 84.6673 126.94 87.1599 126.706V129.375Z" fill="#2F2F2F"/>
<path d="M80.1425 129.658H87.1599V129.375H80.1425V129.658Z" fill="#2F2F2F"/>
<path d="M80.1425 137.891H87.1599V137.609H80.1425V137.891Z" fill="#2F2F2F"/>
<path d="M79.9425 138.111C79.3436 138.039 78.7567 137.966 78.1836 137.891H79.9425V138.111ZM79.9425 137.609H76.1474C75.0086 137.441 73.934 137.267 72.9245 137.085V129.658H79.9425V137.609ZM79.9425 129.375H72.9245V128.638C74.994 128.232 77.3458 127.855 79.9425 127.512V129.375Z" fill="#2F2F2F"/>
<path d="M72.9245 129.658H79.9425V129.375H72.9245V129.658Z" fill="#2F2F2F"/>
<path d="M79.9425 137.891H78.1836C77.4846 137.799 76.8059 137.705 76.1474 137.609H79.9425V137.891Z" fill="#2F2F2F"/>
<path d="M72.725 137.049C69.7475 136.505 67.368 135.897 65.707 135.235V130.619C66.4953 130.288 67.4463 129.967 68.5466 129.658H72.725V137.049ZM72.725 129.375H69.6046C70.554 129.135 71.5968 128.902 72.725 128.677V129.375Z" fill="#2F2F2F"/>
<path d="M72.7251 129.658H68.5467C68.8855 129.562 69.238 129.468 69.6047 129.375H72.7251V129.658Z" fill="#2F2F2F"/>
<path d="M65.5071 135.154C63.8774 134.476 62.9977 133.743 62.9977 132.964C62.9977 132.177 63.8764 131.418 65.5071 130.705V135.154Z" fill="#2F2F2F"/>
<path d="M81.1444 132.18C76.1878 132.18 72.1554 128.134 72.1554 123.162V36.7896C72.1554 31.8166 76.1878 27.7709 81.1444 27.7709H123.756C128.713 27.7709 132.745 31.8166 132.745 36.7896V123.162C132.745 128.134 128.713 132.18 123.756 132.18H81.1444Z" fill="#1B1918"/>
<path d="M123.756 130.812H81.1444C76.9504 130.812 73.5189 127.369 73.5189 123.162V36.7896C73.5189 32.5817 76.9504 29.1389 81.1444 29.1389H123.756C127.95 29.1389 131.382 32.5817 131.382 36.7896V123.162C131.382 127.369 127.95 130.812 123.756 130.812Z" fill="#303030"/>
<path d="M117.306 92.0127C115.076 100.736 106.219 105.994 97.5241 103.755C88.8295 101.517 83.5891 92.6308 85.8202 83.9076C88.0513 75.1843 96.908 69.9266 105.603 72.165C114.298 74.403 119.538 83.2894 117.306 92.0127Z" fill="#D8A914"/>
<path d="M119.08 92.4697C116.85 101.193 107.993 106.45 99.2981 104.212C90.6035 101.974 85.3632 93.0878 87.5942 84.364C89.8248 75.6408 98.682 70.3836 107.377 72.6215C116.072 74.86 121.312 83.7459 119.08 92.4697Z" fill="#F9F140"/>
<path d="M118.35 92.2812C116.223 100.6 107.777 105.613 99.4855 103.479C91.1944 101.344 86.1974 92.871 88.325 84.5525C90.4521 76.2336 98.8982 71.2206 107.189 73.3547C115.48 75.4893 120.477 83.9628 118.35 92.2812Z" fill="#FAD117"/>
<path d="M111.219 94.4356C110.443 95.4565 109.488 96.3077 108.379 96.9659C107.27 97.624 106.066 98.0547 104.801 98.2452C103.494 98.4418 102.174 98.3724 100.877 98.0385C99.5799 97.7046 98.3897 97.128 97.3388 96.3239C96.3212 95.5462 95.4723 94.5871 94.8163 93.4749C94.1603 92.3623 93.7315 91.1544 93.5417 89.8852C93.3452 88.574 93.4149 87.2495 93.7477 85.9484C94.0805 84.6468 94.6552 83.4526 95.4561 82.3982C96.2318 81.3773 97.1873 80.5261 98.2962 79.8679C99.4052 79.2097 100.609 78.7791 101.874 78.5886C103.181 78.392 104.501 78.4614 105.798 78.7953C107.095 79.1292 108.286 79.7058 109.337 80.5093C110.354 81.2876 111.203 82.2462 111.859 83.3588C112.515 84.4715 112.943 85.6794 113.133 86.9486C113.33 88.2598 113.26 89.5843 112.928 90.8854C112.595 92.187 112.02 93.3812 111.219 94.4356ZM115.31 86.6208C115.077 85.0688 114.554 83.5934 113.753 82.2345C112.951 80.8762 111.915 79.7048 110.671 78.7537C109.384 77.7698 107.929 77.064 106.345 76.6566C104.761 76.2488 103.147 76.1642 101.547 76.4053C100.001 76.6379 98.5295 77.1638 97.1756 77.9674C95.8217 78.771 94.6542 79.8117 93.7058 81.0596C92.7256 82.3501 92.0221 83.8103 91.6156 85.3992C91.2096 86.9886 91.1252 88.6079 91.3651 90.213C91.5974 91.7649 92.1211 93.2404 92.9225 94.5992C93.7235 95.9576 94.7602 97.1285 96.0045 98.08C97.2908 99.064 98.7462 99.7693 100.33 100.177C101.914 100.585 103.528 100.67 105.127 100.428C106.674 100.196 108.145 99.67 109.499 98.8664C110.854 98.0628 112.021 97.0221 112.969 95.7742C113.949 94.4837 114.653 93.0235 115.059 91.4341C115.466 89.8452 115.55 88.2259 115.31 86.6208Z" fill="#D8A914"/>
<path d="M104.133 91.1681C103.897 91.2856 103.544 91.2841 103.073 91.163L101.679 90.8043L102.139 89.0066L103.527 89.3638C104.005 89.487 104.319 89.6526 104.47 89.8614C104.62 90.0701 104.662 90.3052 104.595 90.5677C104.522 90.8504 104.368 91.0505 104.133 91.1681ZM103.001 85.6353L104.208 85.9459C104.622 86.0523 104.894 86.1997 105.024 86.3882C105.154 86.5762 105.185 86.7996 105.119 87.058C105.048 87.3362 104.91 87.5277 104.706 87.6321C104.501 87.7364 104.186 87.7334 103.759 87.6239L102.571 87.3179L103.001 85.6353ZM107.165 90.0585C106.961 89.6081 106.561 89.2245 105.965 88.9073C106.42 88.8698 106.788 88.7543 107.07 88.5598C107.491 88.2684 107.769 87.8606 107.903 87.3357C108.063 86.7104 107.969 86.1267 107.621 85.5856C107.273 85.0445 106.672 84.664 105.82 84.4446L105.284 84.3068L105.65 82.8795L104.256 82.5208L103.891 83.9481L103.459 83.8371L103.823 82.4093L102.43 82.0506L102.065 83.4784L100.009 82.9489L99.6517 84.3468L100.706 84.6184L99.1522 90.6959L98.0978 90.4243L97.7402 91.8222L99.7961 92.3517L99.4875 93.5585L100.881 93.9173L101.189 92.7104L101.622 92.8213L101.313 94.0282L102.706 94.3869L103.015 93.1801L103.152 93.2155C103.353 93.2672 103.772 93.3321 104.408 93.4096C104.886 93.4683 105.257 93.4607 105.52 93.3863C105.944 93.2677 106.311 93.0524 106.618 92.7398C106.925 92.4277 107.137 92.0416 107.255 91.5815C107.399 91.0166 107.369 90.5089 107.165 90.0585Z" fill="#D8A914"/>
<path d="M118.56 125.799H86.3403C83.8522 125.799 81.8165 123.757 81.8165 121.261V98.5669C81.8165 96.0706 83.8522 94.0282 86.3403 94.0282H118.56C121.048 94.0282 123.084 96.0706 123.084 98.5669V121.261C123.084 123.757 121.048 125.799 118.56 125.799Z" fill="#593117"/>
<path d="M89.5839 96.0711H87.774C87.6488 96.0711 87.5478 95.9693 87.5478 95.8441C87.5478 95.7185 87.6488 95.6171 87.774 95.6171H89.5839C89.7092 95.6171 89.8102 95.7185 89.8102 95.8441C89.8102 95.9693 89.7092 96.0711 89.5839 96.0711ZM93.2043 96.0711H91.3939C91.2691 96.0711 91.1676 95.9693 91.1676 95.8441C91.1676 95.7185 91.2691 95.6171 91.3939 95.6171H93.2043C93.329 95.6171 93.4305 95.7185 93.4305 95.8441C93.4305 95.9693 93.329 96.0711 93.2043 96.0711ZM96.8241 96.0711H95.0142C94.889 96.0711 94.788 95.9693 94.788 95.8441C94.788 95.7185 94.889 95.6171 95.0142 95.6171H96.8241C96.9494 95.6171 97.0504 95.7185 97.0504 95.8441C97.0504 95.9693 96.9494 96.0711 96.8241 96.0711ZM100.444 96.0711H98.634C98.5093 96.0711 98.4083 95.9693 98.4083 95.8441C98.4083 95.7185 98.5093 95.6171 98.634 95.6171H100.444C100.569 95.6171 100.67 95.7185 100.67 95.8441C100.67 95.9693 100.569 96.0711 100.444 96.0711ZM104.064 96.0711H102.254C102.129 96.0711 102.028 95.9693 102.028 95.8441C102.028 95.7185 102.129 95.6171 102.254 95.6171H104.064C104.19 95.6171 104.291 95.7185 104.291 95.8441C104.291 95.9693 104.19 96.0711 104.064 96.0711ZM107.685 96.0711H105.874C105.749 96.0711 105.648 95.9693 105.648 95.8441C105.648 95.7185 105.749 95.6171 105.874 95.6171H107.685C107.809 95.6171 107.91 95.7185 107.91 95.8441C107.91 95.9693 107.809 96.0711 107.685 96.0711ZM111.304 96.0711H109.495C109.369 96.0711 109.268 95.9693 109.268 95.8441C109.268 95.7185 109.369 95.6171 109.495 95.6171H111.304C111.43 95.6171 111.531 95.7185 111.531 95.8441C111.531 95.9693 111.43 96.0711 111.304 96.0711ZM114.925 96.0711H113.114C112.99 96.0711 112.888 95.9693 112.888 95.8441C112.888 95.7185 112.99 95.6171 113.114 95.6171H114.925C115.05 95.6171 115.151 95.7185 115.151 95.8441C115.151 95.9693 115.05 96.0711 114.925 96.0711ZM118.545 96.0711H116.735C116.61 96.0711 116.509 95.9693 116.509 95.8441C116.509 95.7185 116.61 95.6171 116.735 95.6171H118.545C118.67 95.6171 118.771 95.7185 118.771 95.8441C118.771 95.9693 118.67 96.0711 118.545 96.0711ZM84.384 96.9086C84.3274 96.9086 84.2708 96.8878 84.2269 96.8453C84.137 96.7586 84.134 96.6148 84.2208 96.5246C84.6774 96.0473 85.2859 95.7352 85.9343 95.646C86.057 95.6288 86.1722 95.7154 86.1893 95.8396C86.2065 95.9637 86.1196 96.0787 85.9959 96.0954C85.448 96.1709 84.9334 96.4354 84.5466 96.8392C84.5026 96.8853 84.443 96.9086 84.384 96.9086ZM121.195 98.1388C121.093 98.1388 121.001 98.0699 120.976 97.9665C120.842 97.4274 120.527 96.9415 120.087 96.5975C119.988 96.5205 119.971 96.3776 120.048 96.2788C120.124 96.18 120.266 96.1623 120.365 96.2393C120.884 96.6457 121.258 97.2202 121.415 97.8576C121.445 97.9792 121.371 98.1023 121.249 98.1322C121.231 98.1368 121.213 98.1388 121.195 98.1388ZM83.626 100.341C83.5012 100.341 83.3997 100.24 83.3997 100.114V98.5674C83.3997 98.4691 83.4048 98.3724 83.4139 98.2766C83.4265 98.1525 83.5366 98.0653 83.6613 98.0729C83.7855 98.0856 83.8764 98.1966 83.8643 98.3212C83.8562 98.4023 83.8522 98.4843 83.8522 98.5674V100.114C83.8522 100.24 83.7512 100.341 83.626 100.341ZM121.275 101.764C121.149 101.764 121.048 101.663 121.048 101.538V99.7211C121.048 99.596 121.149 99.4946 121.275 99.4946C121.4 99.4946 121.501 99.596 121.501 99.7211V101.538C121.501 101.663 121.4 101.764 121.275 101.764ZM83.626 103.974C83.5012 103.974 83.3997 103.872 83.3997 103.747V101.931C83.3997 101.806 83.5012 101.704 83.626 101.704C83.7512 101.704 83.8522 101.806 83.8522 101.931V103.747C83.8522 103.872 83.7512 103.974 83.626 103.974ZM121.275 105.396C121.149 105.396 121.048 105.294 121.048 105.169V103.353C121.048 103.228 121.149 103.126 121.275 103.126C121.4 103.126 121.501 103.228 121.501 103.353V105.169C121.501 105.294 121.4 105.396 121.275 105.396ZM83.626 107.605C83.5012 107.605 83.3997 107.504 83.3997 107.378V105.562C83.3997 105.437 83.5012 105.336 83.626 105.336C83.7512 105.336 83.8522 105.437 83.8522 105.562V107.378C83.8522 107.504 83.7512 107.605 83.626 107.605ZM121.275 109.029C121.149 109.029 121.048 108.927 121.048 108.802V106.986C121.048 106.86 121.149 106.759 121.275 106.759C121.4 106.759 121.501 106.86 121.501 106.986V108.802C121.501 108.927 121.4 109.029 121.275 109.029ZM83.626 111.238C83.5012 111.238 83.3997 111.136 83.3997 111.011V109.195C83.3997 109.069 83.5012 108.968 83.626 108.968C83.7512 108.968 83.8522 109.069 83.8522 109.195V111.011C83.8522 111.136 83.7512 111.238 83.626 111.238ZM121.275 112.66C121.149 112.66 121.048 112.559 121.048 112.433V110.617C121.048 110.492 121.149 110.391 121.275 110.391C121.4 110.391 121.501 110.492 121.501 110.617V112.433C121.501 112.559 121.4 112.66 121.275 112.66ZM83.626 114.869C83.5012 114.869 83.3997 114.768 83.3997 114.643V112.827C83.3997 112.701 83.5012 112.6 83.626 112.6C83.7512 112.6 83.8522 112.701 83.8522 112.827V114.643C83.8522 114.768 83.7512 114.869 83.626 114.869ZM121.275 116.293C121.149 116.293 121.048 116.191 121.048 116.066V114.249C121.048 114.124 121.149 114.022 121.275 114.022C121.4 114.022 121.501 114.124 121.501 114.249V116.066C121.501 116.191 121.4 116.293 121.275 116.293ZM83.626 118.501C83.5012 118.501 83.3997 118.4 83.3997 118.275V116.459C83.3997 116.333 83.5012 116.232 83.626 116.232C83.7512 116.232 83.8522 116.333 83.8522 116.459V118.275C83.8522 118.4 83.7512 118.501 83.626 118.501ZM121.275 119.924C121.149 119.924 121.048 119.823 121.048 119.697V117.882C121.048 117.756 121.149 117.655 121.275 117.655C121.4 117.655 121.501 117.756 121.501 117.882V119.697C121.501 119.823 121.4 119.924 121.275 119.924ZM83.7017 122.127C83.5997 122.127 83.5073 122.058 83.482 121.953C83.4275 121.728 83.3997 121.495 83.3997 121.261V120.091C83.3997 119.965 83.5012 119.864 83.626 119.864C83.7512 119.864 83.8522 119.965 83.8522 120.091V121.261C83.8522 121.459 83.8759 121.656 83.9219 121.847C83.9512 121.968 83.8764 122.091 83.7552 122.121C83.7371 122.125 83.7194 122.127 83.7017 122.127ZM120.528 123.362C120.472 123.362 120.416 123.341 120.372 123.299C120.281 123.213 120.278 123.069 120.364 122.979C120.747 122.574 120.987 122.046 121.038 121.493C121.049 121.368 121.161 121.281 121.284 121.287C121.409 121.299 121.5 121.409 121.488 121.534C121.428 122.189 121.145 122.813 120.692 123.291C120.647 123.338 120.588 123.362 120.528 123.362ZM86.3721 124.211H86.3403C85.6747 124.211 85.046 123.992 84.5223 123.578C84.4244 123.501 84.4077 123.358 84.485 123.259C84.5622 123.162 84.7046 123.144 84.8026 123.222C85.2455 123.572 85.7773 123.757 86.3403 123.757C86.4656 123.757 86.5822 123.858 86.5822 123.984C86.5822 124.109 86.4969 124.211 86.3721 124.211ZM89.992 124.211H88.1821C88.0568 124.211 87.9558 124.109 87.9558 123.984C87.9558 123.858 88.0568 123.757 88.1821 123.757H89.992C90.1172 123.757 90.2182 123.858 90.2182 123.984C90.2182 124.109 90.1172 124.211 89.992 124.211ZM93.6118 124.211H91.8019C91.6772 124.211 91.5757 124.109 91.5757 123.984C91.5757 123.858 91.6772 123.757 91.8019 123.757H93.6118C93.7371 123.757 93.8381 123.858 93.8381 123.984C93.8381 124.109 93.7371 124.211 93.6118 124.211ZM97.2322 124.211H95.4222C95.297 124.211 95.196 124.109 95.196 123.984C95.196 123.858 95.297 123.757 95.4222 123.757H97.2322C97.3569 123.757 97.4584 123.858 97.4584 123.984C97.4584 124.109 97.3569 124.211 97.2322 124.211ZM100.852 124.211H99.0421C98.9174 124.211 98.8158 124.109 98.8158 123.984C98.8158 123.858 98.9174 123.757 99.0421 123.757H100.852C100.977 123.757 101.078 123.858 101.078 123.984C101.078 124.109 100.977 124.211 100.852 124.211ZM104.472 124.211H102.662C102.537 124.211 102.436 124.109 102.436 123.984C102.436 123.858 102.537 123.757 102.662 123.757H104.472C104.597 123.757 104.699 123.858 104.699 123.984C104.699 124.109 104.597 124.211 104.472 124.211ZM108.092 124.211H106.282C106.157 124.211 106.056 124.109 106.056 123.984C106.056 123.858 106.157 123.757 106.282 123.757H108.092C108.217 123.757 108.318 123.858 108.318 123.984C108.318 124.109 108.217 124.211 108.092 124.211ZM111.713 124.211H109.902C109.777 124.211 109.676 124.109 109.676 123.984C109.676 123.858 109.777 123.757 109.902 123.757H111.713C111.837 123.757 111.939 123.858 111.939 123.984C111.939 124.109 111.837 124.211 111.713 124.211ZM115.332 124.211H113.522C113.397 124.211 113.296 124.109 113.296 123.984C113.296 123.858 113.397 123.757 113.522 123.757H115.332C115.458 123.757 115.559 123.858 115.559 123.984C115.559 124.109 115.458 124.211 115.332 124.211ZM118.56 124.211H117.143C117.018 124.211 116.917 124.109 116.917 123.984C116.917 123.858 117.018 123.757 117.143 123.757H118.56C118.682 123.757 118.802 123.748 118.919 123.731C119.042 123.716 119.157 123.798 119.175 123.923C119.193 124.047 119.107 124.162 118.984 124.18C118.844 124.201 118.701 124.211 118.56 124.211Z" fill="#301E15"/>
<path d="M114.037 116.722H123.084V103.106H114.037C112.793 103.106 111.775 104.127 111.775 105.375V114.452C111.775 115.7 112.793 116.722 114.037 116.722Z" fill="#6A3718"/>
<path d="M118.07 109.914C118.07 111.094 117.117 112.051 115.94 112.051C114.764 112.051 113.81 111.094 113.81 109.914C113.81 108.734 114.764 107.777 115.94 107.777C117.117 107.777 118.07 108.734 118.07 109.914Z" fill="#F9D306"/>
<path d="M121.503 45.066H84.0623C81.2918 45.066 79.0249 42.7921 79.0249 40.012C79.0249 37.2324 81.2918 34.958 84.0623 34.958H121.503C124.274 34.958 126.541 37.2324 126.541 40.012C126.541 42.7921 124.274 45.066 121.503 45.066Z" fill="white"/>
<path d="M120.48 40.2754C119.863 40.9007 118.853 40.9052 118.23 40.2856C117.607 39.6659 117.602 38.6531 118.22 38.0279C118.838 37.4026 119.847 37.3981 120.47 38.0177C121.093 38.6374 121.098 39.6502 120.48 40.2754ZM120.648 37.8379C119.926 37.1199 118.756 37.125 118.041 37.8495C117.325 38.5741 117.33 39.7475 118.052 40.4654C118.742 41.1515 119.84 41.1768 120.561 40.546L122.455 42.4298C122.508 42.4825 122.594 42.482 122.646 42.4293C122.698 42.3761 122.698 42.2899 122.645 42.2378L120.751 40.354C121.373 39.6249 121.338 38.5239 120.648 37.8379Z" fill="#96DBC8"/>
<path d="M115.564 43.1315C115.499 43.1315 115.446 43.0783 115.446 43.0135V37.0105C115.446 36.9456 115.499 36.8929 115.564 36.8929C115.628 36.8929 115.681 36.9456 115.681 37.0105V43.0135C115.681 43.0783 115.628 43.1315 115.564 43.1315Z" fill="#96DBC8"/>
<path d="M80.2303 77.7936C80.2303 78.6372 79.5486 79.3212 78.7078 79.3212C77.8664 79.3212 77.1847 78.6372 77.1847 77.7936C77.1847 76.95 77.8664 76.266 78.7078 76.266C79.5486 76.266 80.2303 76.95 80.2303 77.7936Z" fill="#F5BD0A"/>
<path d="M91.7383 65.6985C91.7383 66.5421 91.0565 67.2261 90.2157 67.2261C89.3744 67.2261 88.6926 66.5421 88.6926 65.6985C88.6926 64.8544 89.3744 64.1709 90.2157 64.1709C91.0565 64.1709 91.7383 64.8544 91.7383 65.6985Z" fill="#F5BD0A"/>
<path d="M103.246 68.7536C103.246 69.5978 102.564 70.2818 101.724 70.2818C100.882 70.2818 100.201 69.5978 100.201 68.7536C100.201 67.91 100.882 67.226 101.724 67.226C102.564 67.226 103.246 67.91 103.246 68.7536Z" fill="#F5BD0A"/>
<path d="M114.754 54.873C114.754 55.7171 114.072 56.4011 113.232 56.4011C112.39 56.4011 111.708 55.7171 111.708 54.873C111.708 54.0294 112.39 53.3454 113.232 53.3454C114.072 53.3454 114.754 54.0294 114.754 54.873Z" fill="#F5BD0A"/>
<path d="M126.262 49.2242C126.262 50.0683 125.58 50.7523 124.74 50.7523C123.898 50.7523 123.216 50.0683 123.216 49.2242C123.216 48.3806 123.898 47.6966 124.74 47.6966C125.58 47.6966 126.262 48.3806 126.262 49.2242Z" fill="#F5BD0A"/>
<path d="M78.8578 77.9375L78.5578 77.6497L90.1501 65.4659L101.648 68.5186L113.1 54.7058L124.648 49.0372L124.83 49.4111L113.362 55.0402L101.798 68.9888L90.2809 65.931L78.8578 77.9375Z" fill="#F5BD0A"/>
<path d="M161.697 131.476C161.697 131.476 160.476 130.247 159.664 129.689L158.945 126.78H155.112L154.883 130.97C154.723 132.172 155.673 133.334 157.555 133.194C159.439 133.055 161.697 131.476 161.697 131.476Z" fill="#959595"/>
<path d="M165.678 133.629C165.307 133.165 164.039 132.841 163.811 132.74C163.124 132.434 161.004 130.167 161.004 130.167C159.657 129.478 158.871 129.684 158.084 130.403C157.567 130.876 157.705 131.341 157.483 131.803C157.483 131.803 155.58 131.362 155.33 130.928C154.965 130.294 154.84 130.108 154.445 130.586C154.352 130.699 154.293 135.509 154.293 135.509L165.312 135.653C165.312 135.653 166.278 134.382 165.678 133.629Z" fill="#100F0D"/>
<path d="M140.356 132.454L140.061 127.246H136.314C136.314 127.246 136.019 129.317 135.724 130.246C135.429 131.175 133.998 132.316 133.998 132.865C133.998 133.414 140.356 134.282 140.356 132.454Z" fill="#959595"/>
<path d="M134.367 131.578C134.367 131.584 134.372 131.588 134.375 131.593C133.742 132.228 133.033 132.954 132.876 133.318C132.63 133.89 132.496 134.58 132.81 135.118C132.949 135.356 133.15 135.528 133.386 135.653C135.88 135.653 138.115 135.653 140.609 135.653C140.833 134.696 140.504 132.184 140.504 131.943C140.504 131.7 140.101 131.54 139.9 131.338C139.907 130.791 139.788 130.267 139.14 129.92C138.755 129.714 137.121 129.685 136.38 129.69C135.059 129.7 134.489 130.748 134.367 131.578Z" fill="#100F0D"/>
<path d="M135.952 99.3903C136.076 95.7235 141.721 95.9662 142.653 98.6987C143.124 100.076 141.946 107.019 141.92 108.266C141.894 109.513 140.687 128.77 140.687 128.77C140.687 128.77 137.551 129.091 135.401 128.66C135.401 128.66 134.756 109.57 134.865 106.329C134.974 103.087 135.952 99.3903 135.952 99.3903Z" fill="#5F000B"/>
<path d="M151.341 98.5497C151.026 94.8946 156.659 95.3293 157.912 97.9301C158.543 99.2408 158.866 106.006 158.99 107.248C159.114 108.489 159.755 128.187 159.755 128.187C159.755 128.187 156.672 128.336 154.486 128.166C154.486 128.166 150.724 108.084 150.446 104.853C150.166 101.622 151.341 98.5497 151.341 98.5497Z" fill="#5F000B"/>
<path d="M150.12 39.8443H143.313V29.642H150.12V39.8443Z" fill="#F0AC93"/>
<path d="M141.589 30.325C140.879 30.2845 140.161 30.2424 139.483 30.0271C138.805 29.8118 138.162 29.4079 137.793 28.7984C137.424 28.1894 137.38 27.3564 137.8 26.7809C138.22 26.2053 139.062 26.1197 139.677 26.4764C139.973 26.6481 142.027 30.3498 141.589 30.325Z" fill="#F1C1A4"/>
<path d="M142.767 15.997C142.877 15.962 143.93 15.6793 144.042 15.655C147.482 14.9077 150.84 14.6219 151.767 20.0944C151.767 20.0944 152.87 26.3669 152.89 27.6326C152.9 28.275 152.655 28.9509 152.441 29.5453C152.114 30.4502 151.69 31.3287 151.159 32.1313C150.507 33.1147 149.663 34.0399 148.505 34.351C147.431 34.6393 146.539 34.5455 145.581 34.1818C144.628 33.8195 143.742 33.2774 142.931 32.6623C142.314 32.1931 141.681 31.6682 141.216 31.0399C141.161 30.9654 141.108 30.8889 141.063 30.8074C140.45 29.7003 138.284 23.7135 138.284 23.7135C136.363 18.5075 139.415 17.0732 142.767 15.997Z" fill="#F1C1A4"/>
<path d="M142.767 15.997C142.877 15.962 143.93 15.6793 144.042 15.655C147.482 14.9077 150.84 14.6219 151.767 20.0944C151.767 20.0944 152.87 26.3669 152.89 27.6326C152.9 28.275 152.655 28.9509 152.441 29.5453C152.114 30.4502 151.69 31.3287 151.159 32.1313C150.507 33.1147 149.663 34.0399 148.505 34.351C147.431 34.6393 146.539 34.5455 145.581 34.1818C144.628 33.8195 143.742 33.2774 142.931 32.6623C142.314 32.1931 141.681 31.6682 141.216 31.0399C141.161 30.9654 141.108 30.8889 141.063 30.8074C140.45 29.7003 138.284 23.7135 138.284 23.7135C136.363 18.5075 139.415 17.0732 142.767 15.997Z" fill="#F1C1A4"/>
<path d="M146.276 34.2638C144.573 33.932 141.934 31.3753 141.65 30.8535C141.082 29.7145 140.554 27.8226 140.554 26.1982C140.554 24.9787 140.341 23.709 140.341 22.5223C141.948 22.5223 144.786 22.3253 146.141 22.3156C149.213 22.2928 151.767 20.0944 151.767 20.0944C150.84 14.6219 147.482 14.9077 144.042 15.655C143.93 15.6793 142.877 15.962 142.767 15.997C139.415 17.0732 136.363 18.5075 138.284 23.7135C138.284 23.7135 140.45 29.7003 141.063 30.8074C141.108 30.8889 141.161 30.9654 141.216 31.0399C141.681 31.6682 142.314 32.1931 142.931 32.6623C143.742 33.2774 144.628 33.8195 145.581 34.1818C146.419 34.5 147.207 34.6114 148.11 34.4412C147.506 34.4493 146.893 34.3941 146.276 34.2638Z" fill="#ED8F6B"/>
<path d="M146.841 24.4953C146.841 24.4953 148.303 26.3147 148.28 26.7257C148.239 27.4314 147.13 27.5034 147.13 27.5034C147.13 27.5034 147.957 27.0094 147.833 26.5433C147.708 26.0771 146.841 24.4953 146.841 24.4953Z" fill="#E1503F"/>
<path d="M150.087 27.2678C150.087 27.2678 148.61 28.1747 147.666 28.3673C146.722 28.5598 145.027 28.5451 145.027 28.5451C144.862 28.5872 146.372 31.0035 148.134 30.5789C149.889 30.1568 150.197 27.2405 150.087 27.2678Z" fill="white"/>
<path d="M150.49 22.2189C150.476 22.2103 150.462 22.2032 150.449 22.1961C149.678 21.8014 148.918 21.7968 148.254 22.1961C148.197 22.2305 148.138 22.2721 148.106 22.3739C148.048 22.5685 148.113 22.875 148.191 23.1471C148.919 22.5198 149.775 22.3308 150.68 22.6009C150.682 22.5026 150.642 22.3851 150.596 22.3177C150.562 22.2685 150.526 22.2402 150.49 22.2189Z" fill="#252232"/>
<path d="M142.261 24.4274C142.269 24.4132 142.277 24.4001 142.286 24.3869C142.756 23.6593 143.413 23.2742 144.187 23.2879C144.254 23.2889 144.326 23.295 144.403 23.368C144.551 23.5073 144.647 23.8052 144.715 24.0798C143.771 23.9015 142.937 24.1665 142.287 24.854C142.236 24.7699 142.212 24.6478 142.219 24.5657C142.224 24.507 142.241 24.4639 142.261 24.4274Z" fill="#252232"/>
<path d="M148.925 24.2567C148.823 23.8751 149.015 23.4921 149.354 23.4009C149.692 23.3102 150.049 23.5458 150.151 23.9278C150.159 23.9582 150.191 24.0763 150.199 24.1067L150.345 24.6554C150.447 25.0359 150.18 25.2482 149.868 25.3318C149.557 25.4154 149.22 25.3647 149.119 24.9847L148.973 24.4355C148.965 24.4056 148.933 24.2871 148.925 24.2567Z" fill="#252232"/>
<path d="M149.139 24.1675C149.147 24.1984 149.178 24.2167 149.209 24.208C149.239 24.1999 149.257 24.1685 149.249 24.1381C149.241 24.1072 149.21 24.089 149.179 24.0971C149.149 24.1052 149.131 24.1371 149.139 24.1675Z" fill="white"/>
<path d="M143.316 25.762C143.214 25.3804 143.406 24.9974 143.745 24.9067C144.083 24.8155 144.44 25.0516 144.542 25.4331C144.55 25.4635 144.581 25.5821 144.59 25.612L144.736 26.1612C144.838 26.5412 144.571 26.7535 144.259 26.8371C143.948 26.9207 143.611 26.8705 143.51 26.49L143.364 25.9413C143.356 25.9109 143.324 25.7929 143.316 25.762Z" fill="#252232"/>
<path d="M143.53 25.6733C143.538 25.7037 143.569 25.722 143.6 25.7138C143.63 25.7057 143.648 25.6738 143.64 25.6434C143.632 25.6125 143.601 25.5948 143.57 25.6029C143.54 25.611 143.521 25.6424 143.53 25.6733Z" fill="white"/>
<path d="M139.316 27.6599C139.439 27.9903 139.561 28.3211 139.683 28.6515C140.267 27.8525 140.389 26.7768 140.268 25.7858C140.14 24.7319 139.772 23.7242 139.538 22.689C139.456 22.3303 139.402 21.9316 139.459 21.5739C140.278 22.0375 141.24 22.2482 142.176 22.153C141.332 21.6453 140.606 20.9421 140.071 20.1137C143.078 22.1479 147.194 22.3987 150.424 20.7434C149.429 20.2976 148.636 19.4342 148.243 18.4163C149.306 18.7624 150.07 19.7159 150.544 20.7308C151.018 21.7451 151.263 22.8502 151.67 23.8929C151.813 24.2612 151.987 24.6356 152.294 24.8834C152.405 24.9726 152.537 25.0405 152.676 25.079C152.803 22.9824 152.937 20.8458 152.444 18.8029C151.958 16.7884 150.761 14.8413 148.889 13.9632C147.395 13.263 145.643 13.3162 144.048 13.7352C142.453 14.1537 140.972 14.9122 139.473 15.6008C138.736 15.9402 137.736 16.2118 137.218 15.5856C137.128 16.6536 137.302 17.743 137.719 18.7299C137.41 19.1763 137.212 19.7174 137.157 20.255C137.035 21.4675 137.465 22.6597 137.888 23.8022C138.364 25.0881 138.84 26.374 139.316 27.6599Z" fill="#252232"/>
<path d="M158.578 76.1763C158.301 83.1769 158.755 85.5603 158.479 92.5609C158.287 95.1672 158.786 100.022 158.47 101.376C158.03 103.269 151.4 104.345 150.857 99.9886C150.05 91.7143 149.745 86.6314 148.022 78.6073L145.598 78.4193V68.3914C145.598 68.3914 157.119 66.8785 157.52 67.9197C157.921 68.9614 158.578 76.1763 158.578 76.1763Z" fill="#7A0714"/>
<path d="M136.768 76.5892C136.231 83.5696 134.971 99.4977 135.433 101.73C135.826 103.633 142.725 107.306 142.973 99.9415C143.345 91.6357 145.223 85.8835 146.87 78.4614L148.854 76.9986L149.685 68.1097C149.685 68.1097 138.099 67.2083 137.754 68.2693C137.408 69.3302 136.768 76.5892 136.768 76.5892Z" fill="#7A0714"/>
<path d="M148.032 75.0221C152.088 74.861 156.159 73.725 158.237 72.7806C158.017 70.755 157.732 68.4714 157.52 67.9197C157.253 67.2276 152.071 67.6643 148.627 68.0347C145.761 67.8421 138.035 67.4054 137.754 68.2693C137.52 68.9872 137.151 72.543 136.937 74.7673C139.917 75.0819 141.625 75.2765 148.032 75.0221Z" fill="#2E2929"/>
<path d="M150.333 35.8882C150.333 35.8882 156.583 37.9443 158.009 39.2743C159.435 40.6048 158.009 50.6413 158.009 52.2135C158.009 53.7852 158.642 67.9334 158.642 69.7472C158.642 71.5611 154.898 73.0973 146.863 73.0973C138.827 73.0973 136.365 70.11 136.365 69.1428C136.365 68.1755 137.532 58.0179 137.532 56.6874C137.532 55.3574 134.356 42.1314 134.356 40.6803C134.356 39.2292 143.101 35.8882 143.101 35.8882L148.827 38.9992L150.333 35.8882Z" fill="#E4ECF0"/>
<path d="M138.843 68.2931C138.843 65.323 139.206 57.9272 138.964 57.2001C138.115 54.6891 137.134 52.3108 136.191 49.8692C136.895 53.1103 137.532 56.0921 137.532 56.6874C137.532 58.0179 136.365 68.1756 136.365 69.1428C136.365 69.9332 138.01 72.0723 142.996 72.8283C141.478 71.36 140.075 69.9408 138.843 68.2931Z" fill="#B9C1D6"/>
<path d="M158.57 45.2003C157.964 45.9937 157.575 47.6824 157.575 47.6824C157.575 47.6824 157.452 57.5634 157.452 58.1699C157.479 60.0228 138.412 61.5007 138.419 63.341C138.419 63.5274 157.512 64.0771 157.513 64.2631C157.516 66.5107 157.488 68.7577 157.392 71.021C157.385 71.1548 157.378 71.2885 157.372 71.4228C158.225 70.9263 158.642 70.3522 158.642 69.7472C158.642 67.9334 158.009 53.7852 158.009 52.2135C158.009 51.3856 158.404 48.2134 158.57 45.2003Z" fill="#B9C1D6"/>
<path d="M148.827 38.9991L151.54 41.5649L150.454 44.0055L153.715 64.8118L150.883 69.2365L147.651 65.0226L148.827 44.2558L147.114 41.7498L148.827 38.9991Z" fill="#5E000B"/>
<path d="M150.23 35.6906C150.23 35.6906 151.447 36.0123 151.846 36.4131C152.245 36.8134 152.013 42.5828 152.013 42.5828L148.828 38.9991L150.23 35.6906Z" fill="#F1F6F7"/>
<path d="M143.239 35.6085C143.239 35.6085 142.15 36.1836 141.708 36.7536C141.362 37.201 147.077 43.1412 147.077 43.1412L148.828 38.9992L143.239 35.6085Z" fill="#F1F6F7"/>
<path d="M133.676 62.3013C134.004 61.4551 135.808 52.5778 136.425 50.4969C137.147 48.0578 136.865 39.6457 135.496 39.4501C134.127 39.255 131.893 43.2359 131.349 44.7412C130.683 46.587 129.224 54.2189 127.931 59.0692C126.85 63.1205 132.653 64.9456 133.676 62.3013Z" fill="#E4ECF0"/>
<path d="M161.06 63.0618C160.733 62.2156 158.121 52.8636 157.65 50.7447C157.167 48.563 156.322 39.3082 157.691 39.1126C159.059 38.9176 161.294 42.8985 161.837 44.4038C162.503 46.2496 166.162 55.4673 166.946 59.5951C167.732 63.7356 162.083 65.7061 161.06 63.0618Z" fill="#E4ECF0"/>
<path d="M155.907 53.621C155.907 53.621 156.693 52.5935 157.546 52.3508C158.399 52.1076 161.73 52.6913 162.122 52.7405C162.562 52.7957 162.071 53.6514 161.704 53.7563C160.965 53.9671 158.033 53.3748 157.605 53.5689C157.177 53.7624 156.058 55.1223 156.058 55.1223L155.907 53.621Z" fill="#F1C1A4"/>
<path d="M155.767 54.9718C155.767 54.9718 156.553 53.9443 157.406 53.7016C158.26 53.4584 161.171 54.0253 161.728 54.0897C162.285 54.1545 161.638 55.0382 161.217 55.1304C160.47 55.294 157.907 54.9713 157.479 55.1653C157.051 55.3589 155.918 56.4731 155.918 56.4731L155.767 54.9718Z" fill="#F1C1A4"/>
<path d="M155.641 56.8627C155.641 56.8627 156.253 55.7339 156.963 55.3706C157.674 55.0073 160.174 55.1471 160.65 55.1304C161.126 55.1137 160.625 56.0804 160.273 56.2324C159.648 56.502 157.456 56.5531 157.104 56.8065C156.751 57.0598 155.851 58.3239 155.851 58.3239L155.641 56.8627Z" fill="#F1C1A4"/>
<path d="M155.218 58.1891C155.218 58.1891 155.715 57.039 156.387 56.8693C156.885 56.7436 158.97 56.5217 159.391 56.507C159.812 56.4923 159.882 57.0831 159.571 57.2174C159.019 57.456 157.121 57.7686 156.81 57.9926C156.498 58.2165 155.404 59.4817 155.404 59.4817L155.218 58.1891Z" fill="#F1C1A4"/>
<path d="M154.469 54.9125C154.469 54.9125 154.798 53.7852 155.198 53.3976C155.477 53.127 156.448 53.1296 156.448 53.1296L156.118 53.7249L154.469 54.9125Z" fill="#F1C1A4"/>
<path d="M156.101 53.5177L156.75 58.0103C156.75 58.0103 155.877 59.8201 154.912 59.8419C153.948 59.8637 153.347 60.2077 153.184 59.7056C153.022 59.2035 153.696 56.0262 154.283 54.9835C154.871 53.9412 156.101 53.5177 156.101 53.5177Z" fill="#F1C1A4"/>
<path d="M153.658 54.0471C153.658 54.0471 154.033 60.4909 154.111 61.979C154.111 61.979 132.947 64.2397 130.636 63.3186C128.579 62.4983 128.334 59.7329 129.404 58.1557C130.475 56.5779 132.619 55.5241 136.066 55.256C139.513 54.988 153.658 54.0471 153.658 54.0471Z" fill="#E4ECF0"/>
<path d="M138.892 58.8737C141.271 59.4016 146.476 60.3627 148.885 60.6911C151.838 61.0944 154.791 61.4972 157.744 61.9005C158.607 62.018 159.529 62.1209 160.338 61.5407C160.68 61.2955 160.881 59.7036 160.257 58.6467C159.733 57.7595 159.233 57.0375 157.823 56.2273C156.766 55.6209 155.568 55.5687 154.396 55.5241C149.665 55.3452 137.699 54.9515 137.699 54.9515C137.699 54.9515 135.239 58.063 138.892 58.8737Z" fill="#F1C1A4"/>
<path d="M141.8 53.8353C141.8 53.8353 141.058 58.5549 141.734 60.7144C141.734 60.7144 161.238 64.5194 163.275 64.2935C166.072 63.9829 167.178 58.9856 163.32 56.7907L141.8 53.8353Z" fill="#E4ECF0"/>
<path d="M136.587 52.7242C136.587 52.7242 136.008 57.0122 136.625 57.9424C137.242 58.8726 137.973 59.8125 139.174 59.5506C140.376 59.2886 140.665 58.4891 140.75 57.8497C140.834 57.2103 139.796 54.6977 138.825 53.6459C137.854 52.5945 136.587 52.7242 136.587 52.7242Z" fill="#F1C1A4"/>
<path d="M138.249 56.5359C138.249 56.5359 137.033 55.8169 136.243 55.7647C135.658 55.7257 134.19 56.0708 133.714 56.1356C133.239 56.2 133.554 56.6925 133.932 56.7766C134.602 56.9255 136.528 56.7036 136.899 56.9448C137.452 57.3045 138.249 56.5359 138.249 56.5359Z" fill="#F1C1A4"/>
<path d="M138.573 53.5232C138.573 53.5232 137.46 51.9409 136.503 51.5447C135.547 51.148 132.412 50.6646 131.96 50.7558C131.194 50.9104 131.353 51.5427 131.986 51.7256C132.927 51.9982 135.817 52.52 136.288 52.7936C136.759 53.0667 137.889 54.6627 137.889 54.6627L138.573 53.5232Z" fill="#F1C1A4"/>
<path d="M138.243 54.5569C138.243 54.5569 137.458 53.3611 136.502 52.9644C135.545 52.5677 132.556 53.9468 131.94 54.1566C131.315 54.3689 131.891 55.0711 132.546 54.9283C133 54.8295 135.766 53.9707 136.238 54.2437C136.709 54.5168 137.888 56.0829 137.888 56.0829L138.243 54.5569Z" fill="#F1C1A4"/>
<path d="M138.153 56.1199C138.153 56.1199 137.488 54.9485 136.692 54.5467C135.896 54.1449 133.531 54.6643 132.911 54.7742C132.378 54.869 132.514 55.6654 133.364 55.6371C134.121 55.6122 136.028 55.4238 136.422 55.6969C136.815 55.9705 137.686 56.8804 137.686 56.8804L138.153 56.1199Z" fill="#F1C1A4"/>
</svg>
