<svg width="419" height="312" viewBox="0 0 419 312" fill="none" xmlns="http://www.w3.org/2000/svg">
<path d="M287.654 283.261H316.485V283.052H287.654V283.261Z" fill="#D9D7D4"/>
<path d="M76.8289 283.156H93.0523V283.366H76.8289V283.156Z" fill="#D9D7D4"/>
<path d="M177.456 282.874H210.338V282.665H177.456V282.874Z" fill="#D9D7D4"/>
<path d="M161.918 279.897H176.618V279.688H161.918V279.897Z" fill="#D9D7D4"/>
<path d="M311.376 280.002H355.778V279.793H311.376V280.002Z" fill="#D9D7D4"/>
<path d="M368.144 169.373C357.832 153.692 367.248 136.832 365.678 119.389C364.109 101.946 347.519 98.1375 350.657 83.3518C354.297 66.209 344.605 49.7503 333.619 49.7503C322.633 49.7503 312.941 66.209 316.581 83.3518C319.719 98.1375 303.129 101.946 301.559 119.389C299.991 136.832 309.406 153.692 299.094 169.373C288.781 185.054 291.487 205.825 297.3 216.133C298.902 218.973 300.787 221.486 302.842 223.71C319.333 241.557 347.904 241.557 364.397 223.71C366.452 221.486 368.337 218.973 369.938 216.133C375.751 205.825 378.457 185.054 368.144 169.373" fill="#D9D7D4"/>
<path d="M338.831 274.183H328.407V186.485C328.407 183.621 330.752 181.278 333.619 181.278C336.485 181.278 338.831 183.621 338.831 186.485V274.183Z" fill="#EBE9E8"/>
<path d="M268.084 274.183H253.891V186.492C253.891 182.592 257.084 179.401 260.988 179.401C264.891 179.401 268.084 182.592 268.084 186.492V274.183" fill="#D9D7D4"/>
<path d="M304.704 206.846C304.704 230.97 285.132 250.527 260.988 250.527C236.844 250.527 217.271 230.97 217.271 206.846C217.271 182.72 236.844 163.163 260.988 163.163C285.132 163.163 304.704 182.72 304.704 206.846" fill="#EBE9E8"/>
<path d="M312.866 189.593C312.866 199.101 305.152 206.808 295.638 206.808C286.123 206.808 278.41 199.101 278.41 189.593C278.41 180.087 286.123 172.379 295.638 172.379C305.152 172.379 312.866 180.087 312.866 189.593Z" fill="#EBE9E8"/>
<path d="M235.835 179.401C235.835 185.03 231.269 189.593 225.634 189.593C220 189.593 215.434 185.03 215.434 179.401C215.434 173.772 220 169.209 225.634 169.209C231.269 169.209 235.835 173.772 235.835 179.401Z" fill="#EBE9E8"/>
<path d="M243.881 174.124C243.881 178.075 240.675 181.278 236.721 181.278C232.768 181.278 229.562 178.075 229.562 174.124C229.562 170.173 232.768 166.97 236.721 166.97C240.675 166.97 243.881 170.173 243.881 174.124Z" fill="#EBE9E8"/>
<path d="M170.927 221.844C163.648 222.925 157.339 225.561 151.891 229.102C151.839 222.475 150.625 216.179 147.507 211.096C142.762 215.717 138.918 221.693 135.812 228.122C134.65 216.035 131.475 204.328 124.443 196.927C113.908 203.548 108.477 214.586 105.894 226.274C101.696 218.784 95.9049 211.871 87.9079 206.846C81.4615 213.629 79.4041 223.01 79.5753 232.616C72.2526 224.097 64.1197 217.446 56.1932 216.665C54.2412 230.159 58.3978 242.88 63.6798 252.912C70.608 266.069 84.3916 274.183 99.2712 274.183H133.7C148.375 274.183 162.132 266.36 169.017 253.412C173.378 245.212 175.452 234.65 170.927 221.844" fill="#D9D7D4"/>
<path d="M161.111 47.8848C165.366 35.4319 161.988 26.567 151.588 26.567C145.065 26.567 136.978 30.057 129.102 35.7375C128.213 32.4987 125.707 30.5586 121.676 30.5586C114.581 30.5586 104.801 36.5556 97.1293 45.0169C95.2731 43.1304 92.5873 41.9748 89.1347 41.789C82.3453 41.408 74.1218 44.8536 66.9716 50.4579C66.3529 49.5201 65.2904 48.9314 63.8252 48.8444C59.9121 48.6258 54.616 52.1041 51.9845 56.6081C51.8212 56.8912 51.6751 57.1641 51.5302 57.4363H59.6568H66.1228H88.5842H99.6374H108.232H121.47H123.872H156.71H163.176C163.51 53.5108 162.815 50.2293 161.111 47.8848" fill="#EBE9E8"/>
<path d="M161.455 123.49C163.534 117.408 161.884 113.078 156.804 113.078C153.618 113.078 149.668 114.782 145.82 117.557C145.386 115.975 144.162 115.027 142.193 115.027C138.727 115.027 133.95 117.956 130.203 122.09C129.296 121.168 127.984 120.603 126.297 120.513C122.981 120.327 118.964 122.01 115.471 124.747C115.17 124.289 114.65 124.002 113.934 123.959C112.023 123.853 109.436 125.552 108.151 127.752C108.071 127.89 108 128.023 107.929 128.156H111.898H115.057H126.028H131.428H135.626H142.092H143.266H159.306H162.465C162.627 126.239 162.288 124.636 161.455 123.49" fill="#EBE9E8"/>
<path d="M287.239 77.4888C286.814 77.426 286.382 77.395 285.945 77.395C286.346 71.3193 284.022 67.4399 279.057 67.4399C275.474 67.4399 271.079 69.4654 266.598 72.8927C267.88 61.0996 263.775 53.4346 254.479 53.4346C246.98 53.4346 237.486 58.4201 228.109 66.5515C227.288 61.9252 224.525 59.152 219.884 59.152C211.727 59.152 200.14 67.7204 190.849 79.8099H190.837C188.829 77.1145 185.813 75.4482 181.848 75.1828C174.083 74.6377 164.442 79.5604 155.893 87.5837C155.242 86.2289 154.058 85.3874 152.364 85.2777C148.118 84.9821 142.266 89.4066 138.867 95.3266H148.774H155.489H181.315H193.41H204.18H219.477H248.379H259.644H263.652H279.687H294.074C297.717 86.3529 294.814 78.5012 287.239 77.4888Z" fill="#EBE9E8"/>
<path d="M371.979 302.519C371.979 307.755 299.235 312 209.5 312C119.765 312 47.0213 307.755 47.0213 302.519C47.0213 297.282 119.765 293.037 209.5 293.037C299.235 293.037 371.979 297.282 371.979 302.519" fill="#F1EFEF"/>
<path d="M40.9416 80.0577L231.981 107.535L257.62 133.388L40.9416 80.0577Z" fill="#970012"/>
<path d="M257.62 133.388L227.602 126L231.981 107.535L193.241 101.963L231.981 107.535L257.62 133.388Z" fill="#F3929E"/>
<path d="M40.9416 80.0578L231.981 107.535L223.116 144.918L40.9416 80.0578Z" fill="#970012"/>
<path d="M223.116 144.918L198.513 117.475L161.602 108.71L193.241 101.963L231.981 107.535L227.602 126L223.116 144.918M118.194 98.4021L40.9416 80.0578L116.6 90.9398L118.194 98.4021" fill="#762B34"/>
<path d="M219.192 36.7792L230.286 88.7166C230.887 91.5301 229.074 94.3226 226.259 94.9221L127.308 116.022C124.493 116.623 121.699 114.812 121.099 112L110.006 60.0621C109.692 58.5918 110.038 57.1231 110.841 55.9718C111.576 54.9276 112.688 54.143 114.032 53.8558L212.982 32.7566C214.326 32.4702 215.662 32.7332 216.76 33.3854C217.963 34.1097 218.878 35.3088 219.192 36.7792" fill="#970012"/>
<path d="M126.221 116.137C123.807 116.137 121.621 114.448 121.099 112L120.312 108.316L136.469 114.069L127.308 116.022C126.944 116.1 126.58 116.137 126.221 116.137M161.602 108.71L118.194 98.4021L110.006 60.0621C109.929 59.6996 109.891 59.3379 109.891 58.9812C109.889 57.8876 110.236 56.8393 110.841 55.9718C111.576 54.9276 112.688 54.143 114.032 53.8558L212.982 32.7566C213.346 32.6787 213.711 32.6419 214.07 32.6419C215.033 32.6419 215.959 32.9098 216.76 33.3855C217.963 34.1097 218.878 35.3088 219.192 36.7792L230.286 88.7166C230.363 89.0792 230.401 89.4418 230.401 89.7993C230.402 92.2134 228.711 94.3997 226.259 94.9222L224.365 95.3266L213.485 97.6468L213.275 97.6912L203.4 99.7971L203.191 99.8415L161.602 108.71" fill="#6B0A16"/>
<path d="M216.76 33.3855L183.695 73.9393C177.38 81.6847 166.521 83.9999 157.593 79.506L110.841 55.9718C111.576 54.9276 112.688 54.143 114.032 53.8558L212.982 32.7566C214.326 32.4703 215.662 32.7332 216.76 33.3855" fill="#970012"/>
<path d="M40.9416 80.0578L198.513 117.475L223.116 144.918L40.9416 80.0578Z" fill="#970012"/>
<path d="M223.116 144.918L213.485 141.489L213.275 141.414L203.4 137.898L203.191 137.824L161.61 123.02L145.969 117.451L145.768 117.38L140.05 115.344L136.469 114.069L120.312 108.316L40.9416 80.0578L198.513 117.475L223.116 144.918Z" fill="#F3929E"/>
<path d="M115.528 127.114L97.9957 116.851L98.4198 116.129L115.952 126.391L115.528 127.114Z" fill="#970012"/>
<path d="M129.581 135.34L123.274 131.648L123.698 130.925L130.005 134.617L129.581 135.34Z" fill="#970012"/>
<path d="M40.9416 80.0578L198.513 117.475L167.885 154.365L40.9416 80.0578Z" fill="#970012"/>
<path d="M251.701 167.727C251.496 167.727 251.288 167.688 251.085 167.608L225.414 157.453C224.553 157.113 224.131 156.14 224.473 155.279C224.813 154.42 225.782 153.996 226.648 154.339L252.319 164.495C253.18 164.835 253.601 165.808 253.26 166.668C253 167.326 252.369 167.727 251.701 167.727Z" fill="#970012"/>
<path d="M251.701 167.727C251.496 167.727 251.288 167.688 251.085 167.608L225.414 157.453C224.755 157.192 224.354 156.561 224.354 155.893C224.354 155.689 224.393 155.481 224.473 155.279C224.733 154.623 225.361 154.22 226.029 154.22C226.234 154.22 226.444 154.258 226.648 154.339L252.319 164.495C252.978 164.755 253.379 165.387 253.379 166.054C253.379 166.258 253.34 166.467 253.26 166.668C253 167.326 252.369 167.727 251.701 167.727" fill="#56000A"/>
<path d="M250.189 153.018C249.985 153.018 249.775 152.98 249.572 152.9L235.786 147.446C234.925 147.106 234.503 146.133 234.844 145.272C235.184 144.413 236.155 143.989 237.02 144.332L250.807 149.786C251.667 150.126 252.089 151.099 251.748 151.96C251.488 152.617 250.857 153.018 250.189 153.018Z" fill="#970012"/>
<path d="M250.189 153.018C249.985 153.018 249.775 152.98 249.572 152.9L235.786 147.446C235.127 147.185 234.725 146.554 234.726 145.886C234.726 145.682 234.765 145.474 234.844 145.272C235.104 144.616 235.733 144.213 236.401 144.213C236.607 144.213 236.816 144.251 237.02 144.332L250.807 149.786C251.466 150.047 251.868 150.678 251.866 151.345C251.866 151.55 251.827 151.758 251.748 151.96C251.488 152.617 250.857 153.018 250.189 153.018" fill="#A8515C"/>
<path d="M221.367 167.473C221.162 167.473 220.954 167.435 220.751 167.355L195.721 157.453C194.86 157.113 194.439 156.139 194.78 155.279C195.12 154.419 196.093 153.999 196.955 154.339L221.985 164.241C222.846 164.581 223.267 165.554 222.926 166.415C222.666 167.072 222.035 167.473 221.367 167.473Z" fill="#970012"/>
<path d="M221.367 167.473C221.162 167.473 220.954 167.435 220.751 167.355L213.485 164.481L213.275 164.398L203.4 160.491L203.191 160.408L195.721 157.453C195.062 157.192 194.661 156.561 194.662 155.893C194.662 155.688 194.7 155.481 194.78 155.279C195.04 154.622 195.67 154.221 196.338 154.221C196.543 154.221 196.752 154.259 196.955 154.339L221.985 164.241C222.644 164.501 223.045 165.133 223.045 165.801C223.044 166.005 223.006 166.213 222.926 166.415C222.666 167.072 222.035 167.473 221.367 167.473Z" fill="#56000A"/>
<path d="M311.989 91.9973C314.207 96.3297 316.245 100.663 318.179 105.105C320.098 109.547 321.922 114.036 323.491 118.746L324.064 120.532C324.16 120.849 324.309 121.371 324.387 121.742C324.465 122.129 324.55 122.528 324.595 122.882C324.816 124.341 324.856 125.658 324.881 126.955C324.922 129.538 324.747 132 324.532 134.449C324.063 139.34 323.3 144.098 322.25 148.871L317.656 148.361C317.596 143.644 317.552 138.881 317.388 134.236C317.305 131.917 317.172 129.604 316.937 127.422C316.818 126.339 316.643 125.276 316.439 124.387C316.392 124.152 316.329 123.973 316.275 123.778C316.209 123.57 316.181 123.521 316.089 123.273L315.458 121.69C313.707 117.453 311.736 113.179 309.727 108.926L303.643 96.1697L311.989 91.9973" fill="#F3646C"/>
<path d="M317.722 146.927L315.577 150.936L322.429 152.846C322.429 152.846 323.734 149.62 322.179 147.077L317.722 146.927Z" fill="#F3646C"/>
<path d="M312.949 156.716L319.249 157.213L322.429 152.846L315.577 150.936L312.949 156.716Z" fill="#F3646C"/>
<path d="M283.138 63.0623C283.04 63.5488 282.701 63.8905 282.383 63.826C282.065 63.7607 281.887 63.3144 281.986 62.8279C282.085 62.3422 282.424 61.9998 282.74 62.0651C283.059 62.1296 283.236 62.5767 283.138 63.0623" fill="#56000A"/>
<path d="M282.745 63.8997C282.745 63.8997 281.069 66.4795 279.575 67.5856C280.272 68.5636 281.811 68.4933 281.811 68.4933L282.745 63.8997Z" fill="#EF344D"/>
<path d="M285.468 60.7245C285.39 60.7245 285.312 60.6927 285.254 60.6307C284.381 59.6862 283.345 59.8394 283.298 59.8453C283.145 59.8738 282.99 59.7641 282.964 59.6058C282.938 59.4475 283.045 59.2977 283.202 59.2709C283.258 59.2608 284.587 59.0506 285.683 60.2346C285.792 60.3527 285.784 60.5369 285.667 60.6466L285.468 60.7245" fill="#56000A"/>
<path d="M296.999 69.9009C296.117 74.4016 295.236 82.6468 298.386 85.6495C298.386 85.6495 297.156 90.2147 288.787 90.2147C279.584 90.2147 284.389 85.6503 284.389 85.6503C289.411 84.4521 289.282 80.7285 288.407 77.2318L296.999 69.9009" fill="#F3646C"/>
<path d="M299.65 88.4914C300.314 86.2858 301.046 83.7621 299.532 82.9717C297.867 82.1025 288.753 81.2149 285.611 82.8477C282.469 84.4806 283.36 88.9528 283.36 88.9528L299.65 88.4914" fill="#56000A"/>
<path d="M318.209 296.14L318.03 296.158C317.905 296.188 317.817 296.252 317.76 296.354C317.629 296.595 317.707 296.696 317.732 296.729C317.996 297.074 319.254 297.08 320.172 296.925C319.642 296.598 318.769 296.14 318.209 296.14V296.14ZM318.979 297.312C318.348 297.312 317.738 297.216 317.501 296.906C317.401 296.776 317.32 296.55 317.506 296.214C317.602 296.038 317.757 295.924 317.963 295.875C318.867 295.667 320.562 296.828 320.634 296.876L320.694 297.023L320.586 297.138C320.27 297.214 319.614 297.312 318.979 297.312" fill="#970012"/>
<path d="M319.308 294.649L319.243 294.653C319.053 294.676 319.037 294.763 319.029 294.8C318.953 295.206 319.737 296.225 320.371 296.704C320.299 296.185 320.102 295.151 319.643 294.777C319.539 294.691 319.429 294.649 319.308 294.649ZM320.552 297.142L320.482 297.125C319.845 296.78 318.613 295.433 318.743 294.746C318.767 294.622 318.858 294.407 319.207 294.363C319.428 294.338 319.642 294.398 319.828 294.551C320.543 295.134 320.691 296.91 320.697 296.985L320.631 297.118L320.552 297.142" fill="#970012"/>
<path d="M281.035 296.119C280.933 296.119 280.838 296.13 280.754 296.152C280.619 296.189 280.526 296.255 280.469 296.356C280.364 296.538 280.402 296.627 280.439 296.678C280.717 297.063 282.272 297.083 283.427 296.924C282.855 296.631 281.755 296.119 281.035 296.119ZM282.011 297.313C281.221 297.313 280.459 297.204 280.203 296.849C280.113 296.725 280.043 296.513 280.215 296.212C280.311 296.043 280.468 295.929 280.678 295.871C281.696 295.599 283.854 296.818 283.945 296.871L284.016 297.02L283.9 297.14C283.507 297.218 282.747 297.313 282.011 297.313" fill="#970012"/>
<path d="M282.37 294.649L282.283 294.653C282.02 294.68 282.004 294.783 281.998 294.817C281.931 295.235 282.931 296.281 283.688 296.735C283.61 296.251 283.39 295.26 282.876 294.838C282.721 294.711 282.555 294.649 282.37 294.649V294.649ZM283.872 297.142L283.812 297.13C283.07 296.797 281.597 295.468 281.71 294.771C281.736 294.607 281.852 294.404 282.253 294.363C282.551 294.335 282.823 294.417 283.061 294.613C283.845 295.256 284.01 296.912 284.017 296.982L283.957 297.115L283.872 297.142Z" fill="#970012"/>
<path d="M290.641 296.997H284.484L283.872 282.752H290.028L290.641 296.997" fill="#F3646C"/>
<path d="M327.603 296.997H321.448L318.353 282.752H324.51L327.603 296.997" fill="#F3646C"/>
<path d="M321.01 296.284H327.926C328.178 296.284 328.396 296.459 328.451 296.704L329.667 302.173C329.793 302.739 329.347 303.277 328.765 303.267C326.351 303.225 325.177 303.084 322.136 303.084C320.265 303.084 316.409 303.277 313.826 303.277C311.299 303.277 310.905 300.724 311.963 300.493C316.706 299.457 318.493 298.027 320.011 296.663C320.284 296.417 320.642 296.284 321.01 296.284" fill="#56000A"/>
<path d="M284.525 296.284H291.249C291.501 296.284 291.718 296.459 291.773 296.704L292.989 302.173C293.115 302.739 292.684 303.277 292.102 303.267C289.678 303.226 286.174 303.084 283.125 303.084C279.561 303.084 276.483 303.277 272.303 303.277C269.776 303.277 269.075 300.724 270.133 300.493C274.949 299.441 278.881 299.328 283.043 296.765C283.495 296.486 283.995 296.284 284.525 296.284" fill="#56000A"/>
<path d="M281.552 96.4545C276.332 96.0475 271.315 95.3718 266.211 94.4164C263.671 93.9291 261.126 93.3848 258.582 92.6998C256.035 92.0174 253.482 91.2446 250.904 90.1686C250.259 89.9031 249.608 89.6067 248.958 89.2978C248.142 88.895 247.465 88.4763 246.867 88.0794C245.656 87.2798 244.621 86.4567 243.59 85.6352C241.539 83.9949 239.632 82.2892 237.75 80.5668C234.002 77.1036 230.447 73.519 227.023 69.7476L230.106 66.3062L242.264 75.0371C244.271 76.4831 246.297 77.8949 248.289 79.2271C249.282 79.8861 250.297 80.5116 251.221 81.0324C251.689 81.2978 252.106 81.4963 252.427 81.6236C252.925 81.8178 253.43 82.0104 253.96 82.1879C258.216 83.6064 263.029 84.5174 267.809 85.2869C272.594 86.0439 277.538 86.6668 282.315 87.1617L281.552 96.4545" fill="#F3646C"/>
<path d="M309.409 87.0403C315.178 88.3616 321.012 105.22 321.012 105.22L309.135 113.732C309.135 113.732 305.816 105.88 302.553 99.0142C299.133 91.8206 303.509 85.6888 309.409 87.0403Z" fill="#970012"/>
<path d="M309.135 113.732C309.135 113.732 308.216 111.556 306.869 108.495C306.869 108.493 306.869 108.492 306.869 108.49C307.894 110.819 308.671 112.636 308.987 113.375C308.93 109.069 308.345 104.046 307.447 100.305C307.87 95.942 308.5 91.4773 309.409 87.0403C309.409 87.0403 309.209 87.0009 308.852 86.934C309.035 86.9624 309.221 86.9976 309.409 87.0403C315.179 88.3616 321.012 105.22 321.012 105.22L318.882 106.746L311.264 112.206L309.135 113.732" fill="#6B0A16"/>
<path d="M306.08 96.2501L303.725 101.517C306.163 106.776 308.392 111.984 308.987 113.375C308.904 107.152 307.722 99.4329 306.08 96.2501" fill="#970012"/>
<path d="M308.987 113.375C308.671 112.636 307.894 110.819 306.869 108.49C306.991 105.828 307.177 103.086 307.447 100.305C308.345 104.046 308.93 109.069 308.987 113.375Z" fill="#30346B"/>
<path d="M274.919 87.3576C274.919 87.3576 268.367 94.753 274.556 140.526C284.477 140.526 302.655 140.526 307.483 140.526C307.709 135.476 304.533 110.837 309.409 87.0403C309.409 87.0403 303.765 85.909 298.386 85.6495C294.179 85.4468 288.088 85.3129 284.389 85.6503C279.512 86.0949 274.919 87.3576 274.919 87.3576" fill="#970012"/>
<path d="M307.483 140.526C302.655 140.526 284.477 140.526 274.556 140.526C272.57 125.842 271.896 115.108 271.897 107.3C271.897 105.54 271.931 103.929 271.992 102.455C273.85 101.877 276.016 101.062 278.177 99.9353C281.682 99.4278 284.958 98.5754 286.57 97.1478C288.579 95.3684 289.741 93.049 289.739 90.959C289.736 88.3683 287.946 86.1309 283.76 85.7123C283.969 85.6897 284.178 85.6687 284.389 85.6503C286.019 85.5013 288.114 85.4443 290.308 85.4443C293.091 85.4443 296.034 85.5364 298.386 85.6495C303.765 85.909 309.409 87.0403 309.409 87.0403C308.5 91.4773 307.87 95.942 307.447 100.305C307.177 103.086 306.991 105.828 306.869 108.49C306.869 108.492 306.869 108.493 306.869 108.495C306.729 111.542 306.674 114.491 306.674 117.287C306.675 128.049 307.496 136.57 307.495 139.921C307.495 140.147 307.491 140.348 307.483 140.526M272.024 101.743C272.045 101.324 272.068 100.914 272.092 100.517C272.094 100.517 272.094 100.517 272.094 100.516C272.069 100.914 272.046 101.323 272.024 101.743Z" fill="#6B0A16"/>
<path d="M272.484 96.2502C272.266 97.9843 272.099 100.035 271.99 102.455C274.713 101.609 278.099 100.253 281.157 98.1509L272.484 96.2502Z" fill="#970012"/>
<path d="M271.99 102.455C272.021 101.781 272.055 101.135 272.094 100.516C274.011 100.41 276.133 100.232 278.177 99.9353C276.016 101.062 273.85 101.877 271.992 102.455C271.991 102.455 271.991 102.455 271.99 102.455" fill="#30346B"/>
<path d="M286.57 97.1478C282.165 101.048 265.335 100.658 265.335 100.658L264.78 84.4019C264.78 84.4019 274.321 85.7994 281.934 85.6453C291.337 85.4544 291.404 92.8673 286.57 97.1478Z" fill="#970012"/>
<path d="M266.602 100.669C265.803 100.669 265.335 100.658 265.335 100.658L264.78 84.4019C264.78 84.4019 273.349 85.6571 280.725 85.6571C281.132 85.6571 281.535 85.6529 281.934 85.6453C282.052 85.6428 282.17 85.6411 282.286 85.6411C287.528 85.6411 289.736 88.0828 289.739 90.9591C289.741 93.0491 288.579 95.3685 286.57 97.1478C284.958 98.5755 281.682 99.4279 278.177 99.9353C276.133 100.232 274.011 100.41 272.094 100.516C272.094 100.517 272.094 100.517 272.092 100.517C269.811 100.644 267.821 100.669 266.602 100.669" fill="#6B0A16"/>
<path d="M230.256 66.3899L226.031 61.4597L221.52 66.4527C221.52 66.4527 224.297 71.1209 228.72 70.3849L230.256 66.3899Z" fill="#F3646C"/>
<path d="M220.064 55.7106L218.439 62.143L221.52 66.4528L226.031 61.4597L220.064 55.7106Z" fill="#F3646C"/>
<path d="M283.873 282.755L284.188 290.099H290.347L290.033 282.755H283.873" fill="#E04C58"/>
<path d="M324.512 282.755H318.353L319.952 290.099H326.109L324.512 282.755" fill="#E04C58"/>
<path d="M287.58 56.9481C282.057 54.3976 280.311 43.2677 296.198 46.0242C296.198 46.0242 293.804 48.676 298.667 50.3507C303.53 52.0254 299.459 62.4343 287.58 56.9481Z" fill="#56000A"/>
<path d="M299.577 65.3282C297.996 71.2247 297.369 74.7566 293.728 77.2083C288.25 80.8968 281.43 76.6632 281.216 70.4133C281.025 64.7881 283.644 56.089 289.976 54.9017C296.215 53.7302 301.16 59.4308 299.577 65.3282Z" fill="#F3646C"/>
<path d="M295.982 49.0211C299.742 51.1219 304.838 52.3746 304.326 55.353C303.699 58.9937 307.407 56.7162 306.544 62.1404C305.98 65.6824 299.441 76.4154 294.839 75.8912C287.92 75.1033 288.797 64.5436 288.775 58.9946C288.761 55.7231 288.607 44.8997 295.982 49.0211" fill="#56000A"/>
<path d="M287.945 53.7235C286.269 54.1188 284.048 63.7707 290.54 64.655C298.012 65.6723 287.945 53.7235 287.945 53.7235Z" fill="#56000A"/>
<path d="M288.115 57.1491C286.06 57.3299 281.428 54.8598 281.981 51.1454C281.981 51.1454 284.934 55.492 288.115 57.1491Z" fill="#56000A"/>
<path d="M291.16 65.4262C290.517 66.8907 289.301 68.0428 288.123 68.6558C286.352 69.5768 285.357 68.2287 285.757 66.4586C286.118 64.8651 287.474 62.4653 289.296 62.2694C291.09 62.076 291.895 63.7515 291.16 65.4262Z" fill="#F3646C"/>
<path d="M300.378 58.6111C301.622 57.9789 304.454 56.5454 305.226 52.4776C305.226 52.4776 307.991 60.1953 300.378 58.6111Z" fill="#56000A"/>
<path d="M307.372 58.5298C306.752 58.1664 305.342 57.3383 303.363 58.1354C303.363 58.1354 305.942 54.7902 307.372 58.5298Z" fill="#56000A"/>
<path d="M286.236 140.526C286.236 140.526 293.222 187.536 297.058 205.148C301.258 224.434 317.082 288.676 317.082 288.676H328.358C328.358 288.676 317.923 225.99 315.526 206.896C312.925 186.171 307.483 140.526 307.483 140.526H286.236Z" fill="#970012"/>
<path d="M327.74 284.951L316.068 284.552C312.509 270.062 300.615 221.481 297.058 205.148C297.006 204.914 296.955 204.674 296.903 204.43C297.213 199.487 297.512 193.058 297.511 186.543C297.51 177.519 296.937 168.331 295.03 162.7C295.66 150.216 296.199 140.526 296.199 140.526H286.236H307.483C307.483 140.526 312.925 186.171 315.526 206.896C317.571 223.185 325.464 271.192 327.74 284.951" fill="#A8515C"/>
<path d="M315.281 284.525L316.446 288.852H329.131L328.898 284.991L315.281 284.525Z" fill="#970012"/>
<path d="M329.131 288.852H316.446L315.281 284.525L328.898 284.991L329.131 288.852" fill="#56000A"/>
<path d="M290.651 157.275C298.729 158.858 297.875 188.96 296.903 204.443C294.574 193.498 291.162 172.439 288.833 157.493C289.37 157.226 289.972 157.142 290.651 157.275" fill="#970012"/>
<path d="M296.903 204.443C296 200.204 294.936 194.447 293.835 188.116C294.193 179.695 294.63 170.633 295.03 162.7C296.937 168.331 297.51 177.519 297.511 186.543C297.512 193.058 297.213 199.487 296.903 204.43C296.903 204.434 296.903 204.438 296.903 204.443" fill="#F1C1A4"/>
<path d="M274.556 140.526C274.556 140.526 273.708 186.518 274.377 205.277C275.074 224.79 281.894 288.676 281.894 288.676H292.323C292.323 288.676 292.706 225.929 293.17 206.766C293.675 185.876 296.2 140.526 296.2 140.526H274.556" fill="#970012"/>
<path d="M292.346 284.951L281.462 284.58C280.729 277.599 279.183 262.653 277.715 247.215C276.154 230.785 274.681 213.798 274.377 205.277C274.188 199.974 274.12 192.494 274.12 184.491C274.119 164.189 274.556 140.526 274.556 140.526H296.199C296.199 140.526 295.66 150.216 295.03 162.7C294.63 170.633 294.193 179.695 293.835 188.116C293.54 195.053 293.297 201.554 293.173 206.633C293.172 206.678 293.171 206.722 293.17 206.766C292.847 220.085 292.564 254.457 292.421 274.183C292.421 274.253 292.42 274.323 292.419 274.393C292.395 277.78 292.375 280.727 292.359 283.052C292.359 283.122 292.358 283.191 292.358 283.261C292.354 283.87 292.35 284.435 292.346 284.951M276.986 184.537C276.986 192.534 277.054 200.01 277.241 205.281C277.789 220.631 282.124 263.415 283.962 281.097L284.066 281.191L284.077 281.19L284.17 281.075C282.332 263.395 277.999 220.616 277.451 205.273C277.263 200.004 277.195 192.53 277.195 184.535C277.195 168.764 277.456 150.967 277.568 144.066L277.465 143.96H277.464L277.36 144.063C277.246 150.964 276.986 168.764 276.986 184.537" fill="#A8515C"/>
<path d="M284.066 281.191L283.962 281.097C282.124 263.415 277.789 220.631 277.241 205.281C276.682 189.614 277.189 154.463 277.36 144.063L277.464 143.96H277.465L277.568 144.066C277.399 154.465 276.892 189.612 277.451 205.273C277.999 220.616 282.332 263.395 284.17 281.075L284.077 281.19L284.066 281.191" fill="#970012"/>
<path d="M284.066 281.191L283.962 281.097C282.124 263.415 277.789 220.631 277.241 205.281C277.054 200.01 276.986 192.534 276.986 184.537C276.986 168.764 277.246 150.964 277.36 144.063L277.464 143.96H277.465L277.568 144.066C277.456 150.967 277.195 168.764 277.195 184.535C277.195 192.53 277.263 200.004 277.451 205.273C277.999 220.616 282.332 263.395 284.17 281.075L284.077 281.19L284.066 281.191" fill="#F1C1A4"/>
<path d="M279.887 284.525L280.475 288.852H293.162L293.504 284.991L279.887 284.525Z" fill="#970012"/>
<path d="M293.162 288.852H280.475L279.887 284.525L293.504 284.991L293.162 288.852" fill="#56000A"/>
</svg>
