<svg width="23" height="23" viewBox="0 0 23 23" fill="none" xmlns="http://www.w3.org/2000/svg">
<g clip-path="url(#clip0_21_3207)">
<path d="M22.9256 4.85328C22.8763 4.73442 22.8048 4.62814 22.7159 4.53919C22.7101 4.5334 22.7043 4.53241 22.6995 4.52761C22.6125 4.44544 22.513 4.37685 22.4009 4.33045C22.3091 4.29276 22.2124 4.28117 22.1158 4.27245C22.0868 4.27052 22.0627 4.257 22.0337 4.257H14.3027C13.7683 4.257 13.3363 4.68896 13.3363 5.22339C13.3363 5.75782 13.7683 6.18978 14.3027 6.18978H19.7105L12.0607 13.8831L9.14995 10.1567C8.98181 9.94124 8.73151 9.80786 8.46095 9.78756C8.17975 9.76726 7.92073 9.86294 7.72362 10.0495L0.301875 17.076C-0.0856603 17.4432 -0.102057 18.0549 0.264186 18.4424C0.45555 18.6425 0.710657 18.743 0.966753 18.743C1.20546 18.743 1.44413 18.655 1.63064 18.4791L8.28023 12.1832L11.2113 15.9356C11.3823 16.155 11.6384 16.2893 11.9158 16.3057C12.1931 16.3212 12.4627 16.2187 12.6589 16.0226L21.0673 7.56585V12.9544C21.0673 13.4888 21.4992 13.9208 22.0337 13.9208C22.568 13.9208 23 13.4888 23 12.9544V5.22343V5.22245C22.9991 5.09586 22.9739 4.9712 22.9256 4.85328Z" fill="#03A758"/>
</g>
<defs>
<clipPath id="clip0_21_3207">
<rect width="23" height="23" fill="white"/>
</clipPath>
</defs>
</svg>
