<svg width="23" height="23" viewBox="0 0 23 23" fill="none" xmlns="http://www.w3.org/2000/svg">
<g clip-path="url(#clip0_25_3225)">
<path d="M22.9256 18.1467C22.8763 18.2655 22.8048 18.3718 22.7159 18.4608C22.7101 18.4666 22.7043 18.4675 22.6995 18.4723C22.6125 18.5545 22.513 18.6231 22.4009 18.6695C22.3091 18.7072 22.2124 18.7188 22.1158 18.7275C22.0868 18.7294 22.0627 18.743 22.0337 18.743H14.3027C13.7683 18.743 13.3363 18.311 13.3363 17.7766C13.3363 17.2421 13.7683 16.8102 14.3027 16.8102H19.7105L12.0607 9.11688L9.14995 12.8432C8.98181 13.0587 8.73151 13.1921 8.46095 13.2124C8.17975 13.2327 7.92073 13.137 7.72362 12.9505L0.301875 5.92397C-0.0856603 5.55674 -0.102057 4.94505 0.264186 4.55752C0.45555 4.35748 0.710657 4.25699 0.966753 4.25699C1.20546 4.25699 1.44413 4.34495 1.63064 4.52082L8.28023 10.8167L11.2113 7.06434C11.3823 6.84499 11.6384 6.71063 11.9158 6.69424C12.1931 6.67879 12.4627 6.7812 12.6589 6.97738L21.0673 15.4341V10.0456C21.0673 9.5112 21.4992 9.07919 22.0337 9.07919C22.568 9.07919 23 9.51115 23 10.0456V17.7765V17.7775C22.9991 17.9041 22.9739 18.0287 22.9256 18.1467Z" fill="#D6021B"/>
</g>
<defs>
<clipPath id="clip0_25_3225">
<rect width="23" height="23" fill="white"/>
</clipPath>
</defs>
</svg>
